<?xml version="1.0" encoding="utf-8"?>
<!-- Generator: Adobe Illustrator 25.3.1, SVG Export Plug-In . SVG Version: 6.00 Build 0)  -->
<svg version="1.1" id="Layer_1" xmlns="http://www.w3.org/2000/svg" xmlns:xlink="http://www.w3.org/1999/xlink" x="0px" y="0px"
	 viewBox="0 0 1920 1080" style="enable-background:new 0 0 1920 1080;" xml:space="preserve">
<style type="text/css">
	.st0{fill:url(#SVGID_1_);}
	.st1{fill:url(#SVGID_2_);}
</style>
<radialGradient id="SVGID_1_" cx="1963.5659" cy="-21.7419" r="1645.5004" gradientUnits="userSpaceOnUse">
	<stop  offset="0" style="stop-color:#6564C9"/>
	<stop  offset="1" style="stop-color:#3B39C5"/>
</radialGradient>
<path class="st0" d="M1920,0v1026.72c-100.23,33.96-201.69,48.04-292.3,49.93c-121.78,2.54-224-16.96-277.39-39.87
	c-97.59-41.87-124.17-93.75-234.5-111c-14.31-2.23-28.13-3.59-41.46-4.27c-72.58-3.68-130.92,12.84-177.55,17.83
	c-34.75,3.72-63,1.03-85.8-21.19c-34.12-33.24-38.81-93.41-27.86-133.81c21.64-79.85,109.64-101.57,141.26-191.93
	c4.14-11.83,13.2-38.63,9.69-73.33c-2.42-23.98-9.95-42.88-15.92-55c0,0-0.91-1.57-1.92-3.05
	c-30.09-44.23-112.48-68.09-112.48-68.09c-75.49-21.86-147.71-42.76-170.48-93.3c-6.49-14.39-24.15-57.2-2.58-134.03
	C669.17,28.54,479,0,479,0H1920z"/>
<radialGradient id="SVGID_2_" cx="1962.2769" cy="4.945" r="1685.6201" gradientTransform="matrix(1 0 0 0.9761 0 -26.5683)" gradientUnits="userSpaceOnUse">
	<stop  offset="0" style="stop-color:#7A79F3"/>
	<stop  offset="1" style="stop-color:#4745EF"/>
</radialGradient>
<path class="st1" d="M1920,0v1026.72c-62.32,27.94-180.66,49.74-306.73,50.12c-82.52,0.25-152.13-11.27-242.78-60.55
	c-77.56-42.16-114.44-97.27-212.06-112.67c-45.11-7.11-84.1-4.17-84.1-4.17c-75.43,3.56-133.4,24.18-177.55,17.4
	c-16.19-2.48-30.52-8.65-43.17-20.68c-34.12-32.45-38.81-91.18-27.86-130.6c21.64-77.93,109.64-99.14,141.26-187.34
	c4.14-11.54,13.2-37.71,9.69-71.57c-2.42-23.41-9.95-41.85-15.92-53.68c0,0-0.91-1.54-1.92-2.98
	c-30.09-43.17-112.48-66.46-112.48-66.46c-75.49-21.33-147.71-41.74-170.48-91.07c-6.49-14.05-24.15-55.83-2.58-130.82
	C711.81,27.85,521.63,0,521.63,0H1920z"/>
</svg>
