<?xml version="1.0" encoding="utf-8"?>
<!-- Generator: Adobe Illustrator 25.3.1, SVG Export Plug-In . SVG Version: 6.00 Build 0)  -->
<svg version="1.1" id="Layer_1" xmlns="http://www.w3.org/2000/svg" xmlns:xlink="http://www.w3.org/1999/xlink" x="0px" y="0px"
	 viewBox="0 0 1920 1080" style="enable-background:new 0 0 1920 1080;" xml:space="preserve">
<style type="text/css">
	.st0{fill:#DAF4F7;}
	.st1{fill:#89BECA;}
	.st2{fill:#FF5118;}
	.st3{fill:#FFFFFF;}
	.st4{fill:#501506;}
	.st5{fill:#FABBB4;}
	.st6{fill:#24555E;}
	.st7{fill:#1C3A3E;}
	.st8{fill:#FC4B42;}
	.st9{fill:#F8A39F;}
	.st10{fill:#49ABB5;}
</style>
<path class="st0" d="M812.44,302.56l18.16-2.05c1.51-0.16,2.99,0.55,3.81,1.83c1.05,1.63,2.18,3.23,3.38,4.8
	c2.23,2.91,4.63,5.6,7.19,8.03c1.2,1.14,1.6,2.87,0.99,4.4l-6.97,17.79c-0.76,1.89,0.08,4.06,1.93,4.98l15.65,7.75
	c1.78,0.87,3.9,0.27,4.98-1.38l9.46-14.83c0.89-1.46,2.66-2.14,4.36-1.69c7.19,1.9,14.67,2.64,22.16,2.21
	c1.81-0.1,3.49,1.07,4.03,2.79l3.21,10.21c0.63,1.93,2.6,3.13,4.62,2.74l17-3.44c0.35-0.07,0.68-0.17,0.98-0.33
	c1.47-0.7,2.38-2.3,2.17-3.98l-1.51-13.57l-0.38-3.31c2.83-1.59,5.6-3.42,8.24-5.44c3.56-2.73,6.8-5.75,9.67-8.95
	c1.1-1.22,2.82-1.66,4.35-1.05l14.32,5.63c1.96,0.76,4.18-0.09,5.1-1.97l5.93-11.96l1.69-3.43c0.93-1.87,0.31-4.16-1.45-5.27
	l-12.39-7.92c-1.45-0.9-2.16-2.62-1.75-4.24c1.15-4.88,1.8-9.88,1.89-14.87c0.04-0.44,0.04-0.83,0.04-1.26
	c-0.01-0.14,0.01-0.28,0.03-0.42c0.15-1.6,1.27-2.93,2.81-3.41l16.57-5.24c0.19-0.05,0.37-0.14,0.54-0.21
	c1.61-0.78,2.53-2.6,2.19-4.39l-3.4-16.95c-0.41-2.05-2.31-3.43-4.4-3.21l-18.95,2.14c-1.61,0.2-3.15-0.63-3.91-2.05
	c-1.71-3.11-3.69-6.15-5.93-9.07c-1.19-1.55-2.43-3.04-3.72-4.46c-1.04-1.16-1.35-2.81-0.78-4.26l6.69-17.1
	c0.75-1.88-0.08-4.04-1.91-4.95l-15.49-7.65c-1.87-0.93-4.14-0.32-5.29,1.47l-7.49,11.73c-1,1.57-2.93,2.25-4.69,1.66
	c-6.88-2.39-14.1-3.66-21.37-3.84c-1.72-0.01-3.25-1.15-3.77-2.82l-4.72-14.93c-0.63-2-2.68-3.2-4.74-2.8l-16.89,3.38
	c-2.03,0.4-3.41,2.31-3.16,4.33l0.08,0.79l1.76,15.77c0.19,1.69-0.67,3.28-2.19,4.07l-0.02,0.01c-3.62,1.87-7.12,4.08-10.48,6.66
	c-1.79,1.37-3.47,2.81-5.11,4.32c-1.12,1.06-2.74,1.37-4.18,0.82l-14.54-5.71c-1.99-0.79-4.25,0.09-5.18,1.99l-7.62,15.43
	c-0.21,0.44-0.33,0.91-0.39,1.36c-0.15,1.47,0.53,2.99,1.83,3.83l9.91,6.3c1.21,0.78,1.91,2.16,1.85,3.56
	c-0.02,0.37-0.08,0.74-0.2,1.11c-3.01,8.85-4.22,18.19-3.57,27.53c0.13,1.58-0.74,3.06-2.12,3.79c-0.2,0.1-0.41,0.19-0.63,0.26
	l-13.42,4.24c-1.94,0.61-3.12,2.59-2.73,4.61l0.08,0.39l3.3,16.52C808.41,301.4,810.33,302.79,812.44,302.56z M928.65,250.98
	c1.04,2.6,1.88,5.4,2.47,8.39c1.11,5.71-0.05,14.72-2.63,19.94c-0.27,0.56-0.56,1.11-0.84,1.65c-17.77,32.99-64.36,26.43-72.04-10.8
	c-0.99-4.87-0.37-11.96,1.37-17.39c0.42-1.25,0.87-2.43,1.39-3.43c2.37-4.74,5.31-8.7,8.67-11.93
	C886.17,219.04,918.14,225.05,928.65,250.98z"/>
<path class="st0" d="M1389.21,238.93c-17.44-35.15-77.82-11.09-77.82-11.09s-29.65,73.46-41.72,77.47
	c-12.07,4.01,13.09-67.76,13.09-67.76c-24.45,2.44-79.74,44-79.74,44s18.94,75.07,6.25,75.98c-12.69,0.91-13.37-67.33-13.37-67.33
	c-21.83,11.58-38.12,42.97-38.12,42.97c-18.32,49.49,46.17,70.46,46.17,70.46s6,26.16-4.25,59.57l0,0c0,0-2.56,6.3-4.41,16.51
	l6.33-1.26c0.18-1.8,0.42-3.55,0.74-5.25c0-0.01,0-0.02,0.01-0.03c0-0.02,0.01-0.05,0.01-0.07c0.24-1.06,0.59-2.58,1.03-4.43
	c0,0,0,0,0-0.01c0,0,0,0,0-0.01c1.18-4.17,1.93-7.23,2.36-9.41c0-0.01,0-0.01,0-0.02c3.43-13.03,8.7-30.17,13.63-34.53
	c0,0-0.9-0.85-1.93-2.63c0.62,0.84,1.26,1.72,1.93,2.63c15.45,21.06,70.38,14.17,99.33,1.99c28.95-12.19,14.1-18.09-4.89-28.67
	c-19-10.59-52.32-0.18-63.46-3.6c-11.14-3.42,2.49-11.76,22.92-14.21c20.43-2.45,34.49,15.67,67.6,12.31
	c33.12-3.36,45.73-69.42,45.73-69.42c-21.06,11.42-63.76,7.04-66.84-0.4c-3.09-7.43,56.66-18.49,65.48-22.66
	C1394.09,295.88,1406.65,274.08,1389.21,238.93z"/>
<path class="st0" d="M393.03,509.07c-7.1-38.59,55.66-55.5,55.66-55.5s67.75,41.05,79.82,37.02c12.07-4.03-51.08-46.4-51.08-46.4
	c21.04-12.69,90.2-12.56,90.2-12.56s29.82,71.45,40.53,64.57c10.71-6.87-29.63-61.91-29.63-61.91
	c24.42-3.81,56.26,11.56,56.26,11.56c44.32,28.64,5.25,84.08,5.25,84.08s10.87,24.54,39.1,45.14l0,0c0,0,5.83,3.51,13.42,10.58
	l-5.82,2.79c-1.22-1.33-2.47-2.59-3.74-3.76c-0.01-0.01-0.01-0.02-0.02-0.02c-0.02-0.02-0.04-0.03-0.06-0.05
	c-0.83-0.71-2.01-1.71-3.48-2.93c0,0,0,0-0.01,0c0,0-0.01,0-0.01-0.01c-3.44-2.63-5.88-4.63-7.53-6.12c-0.01,0-0.01-0.01-0.01-0.01
	c-10.56-8.38-25.05-18.94-31.6-19.48c0,0,0.21-1.21-0.03-3.27c0.01,1.04,0.02,2.13,0.03,3.27c0.26,26.12-47.86,53.52-78.34,61.11
	c-30.48,7.59-22.13-6.03-13.26-25.89c8.86-19.86,41.78-31.5,48.65-40.91c6.87-9.41-9.04-7.92-26.86,2.36
	c-17.82,10.28-18.22,33.21-46.74,50.36c-28.53,17.15-78.21-28.17-78.21-28.17c23.7-3.47,55.26-32.57,53.28-40.37
	c-1.98-7.8-56.44,19.14-66,21.09C423.25,557.59,400.13,547.66,393.03,509.07z"/>
<path class="st0" d="M1426.44,756.75c30.88-24.2-4.93-78.45-4.93-78.45s-77.95-14.13-84.32-25.15c-6.37-11.01,69-0.93,69-0.93
	c-7.35-23.45-59.25-69.16-59.25-69.16s-69.67,33.77-73.14,21.53c-3.47-12.24,63.21-26.75,63.21-26.75
	c-15.76-19.03-49.8-28.61-49.8-28.61c-52.18-7.9-59.63,59.5-59.63,59.5s-24.4,11.18-59.19,7.91l0,0c0,0-6.69-1.23-17.06-0.97
	l2.51,5.94c1.8-0.19,3.57-0.31,5.3-0.34c0.01-0.01,0.02,0,0.03,0c0.02,0,0.05,0,0.07,0c1.09,0.02,2.64,0.05,4.55,0.11
	c0,0,0,0,0.01,0c0,0,0.01,0,0.01,0c4.32,0.31,7.47,0.43,9.69,0.4c0.01,0,0.01,0,0.02,0c13.46,0.72,31.31,2.4,36.57,6.34
	c0,0,0.65-1.05,2.19-2.43c-0.7,0.77-1.42,1.58-2.19,2.43c-17.49,19.4,0.4,71.8,18.2,97.67c17.8,25.88,20.57,10.14,27.08-10.6
	c6.52-20.75-10.43-51.27-9.34-62.87s12.02,0.05,18.56,19.56c6.54,19.51-8.35,36.95,1.65,68.69c10.01,31.75,77.25,30.71,77.25,30.71
	c-15.46-18.3-19.82-61.01-13.17-65.54c6.65-4.53,29.6,51.73,35.47,59.52C1371.67,773.07,1395.56,780.95,1426.44,756.75z"/>
<g>
	<path class="st0" d="M1146.1,302.49c0,0,3.62-72.3,37.42-117.62c4.49-6.02,14.09-3.05,14.45,4.46c0.01,0.13,0.01,0.25,0.02,0.38
		C1198.38,202.53,1160.96,259.32,1146.1,302.49z"/>
	<path class="st0" d="M1143.05,323.32c0,0,30.44-92.15,90.25-136.1c3.65-2.68,8.87-2.16,11.69,1.39c1.83,2.31,2.84,6.04,1.38,12.08
		C1242.47,216.8,1176.37,274.67,1143.05,323.32z"/>
</g>
<g>
	<path class="st0" d="M625.29,419.92c0,0-30.34-52.91-73.03-74.04c-5.67-2.81-11.74,3.09-9.15,8.87c0.04,0.1,0.09,0.19,0.13,0.29
		C547.85,364.82,597.64,393.18,625.29,419.92z"/>
	<path class="st0" d="M635.55,434.4c0,0-58.06-57.58-119.77-67.74c-3.76-0.62-7.49,1.77-8.25,5.5c-0.49,2.43,0.17,5.62,3.58,9.6
		C520.19,392.38,591.94,410.59,635.55,434.4z"/>
</g>
<path class="st1" d="M1295.16,305.54v459.01c0,8.03-5.8,14.54-12.94,14.54H619.97c-7.15,0-12.94-6.51-12.94-14.54V305.54
	c0-8.04,5.8-14.54,12.94-14.54h662.25C1289.36,290.99,1295.16,297.5,1295.16,305.54z"/>
<path class="st2" d="M1262.43,279.33v37.22H523.35v-37.22c0-7.68,6.23-13.9,13.9-13.9h711.27
	C1256.2,265.43,1262.43,271.65,1262.43,279.33z"/>
<g>
	<path class="st3" d="M545.96,290.99c0-3.57,2.9-6.47,6.47-6.47s6.47,2.9,6.47,6.47c0,3.57-2.9,6.47-6.47,6.47
		S545.96,294.57,545.96,290.99z"/>
	<path class="st3" d="M571.47,290.99c0-3.57,2.9-6.47,6.47-6.47c3.57,0,6.47,2.9,6.47,6.47c0,3.57-2.9,6.47-6.47,6.47
		C574.36,297.46,571.47,294.57,571.47,290.99z"/>
	<path class="st3" d="M597.61,290.99c0-3.57,2.9-6.47,6.47-6.47c3.57,0,6.47,2.9,6.47,6.47c0,3.57-2.9,6.47-6.47,6.47
		C600.51,297.46,597.61,294.57,597.61,290.99z"/>
</g>
<path class="st0" d="M1002.16,225.33l8.85-1c0.74-0.08,1.45,0.27,1.86,0.89c0.51,0.8,1.06,1.57,1.65,2.34
	c1.09,1.42,2.25,2.73,3.5,3.91c0.59,0.56,0.78,1.4,0.48,2.14l-3.39,8.66c-0.37,0.92,0.04,1.98,0.94,2.42l7.62,3.77
	c0.87,0.43,1.9,0.13,2.42-0.67l4.61-7.22c0.43-0.71,1.29-1.04,2.12-0.82c3.5,0.93,7.15,1.29,10.79,1.07
	c0.88-0.05,1.7,0.52,1.96,1.36l1.56,4.97c0.31,0.94,1.27,1.52,2.25,1.34l8.28-1.67c0.17-0.03,0.33-0.08,0.48-0.16
	c0.72-0.34,1.16-1.12,1.06-1.94l-0.74-6.61l-0.18-1.61c1.38-0.77,2.73-1.66,4.01-2.65c1.73-1.33,3.31-2.8,4.71-4.36
	c0.54-0.59,1.37-0.81,2.12-0.51l6.98,2.74c0.96,0.37,2.04-0.04,2.48-0.96l2.89-5.83l0.82-1.67c0.45-0.91,0.15-2.02-0.71-2.57
	l-6.03-3.86c-0.7-0.44-1.05-1.27-0.85-2.07c0.56-2.38,0.88-4.81,0.92-7.24c0.02-0.21,0.02-0.41,0.02-0.61c0-0.07,0-0.14,0.01-0.21
	c0.08-0.78,0.62-1.43,1.37-1.66l8.07-2.55c0.09-0.02,0.18-0.07,0.26-0.1c0.78-0.38,1.23-1.26,1.06-2.14l-1.66-8.25
	c-0.2-1-1.12-1.67-2.14-1.56l-9.23,1.04c-0.78,0.1-1.53-0.31-1.9-1c-0.83-1.52-1.79-2.99-2.89-4.42c-0.58-0.76-1.18-1.48-1.81-2.17
	c-0.51-0.57-0.66-1.37-0.38-2.07l3.26-8.33c0.36-0.92-0.04-1.97-0.93-2.41l-7.55-3.72c-0.91-0.45-2.02-0.15-2.57,0.71l-3.65,5.71
	c-0.49,0.77-1.43,1.09-2.28,0.81c-3.35-1.16-6.87-1.78-10.41-1.87c-0.84-0.01-1.58-0.56-1.84-1.37l-2.3-7.27
	c-0.31-0.98-1.31-1.56-2.31-1.36l-8.23,1.65c-0.99,0.2-1.66,1.13-1.54,2.11l0.04,0.39l0.86,7.68c0.09,0.82-0.33,1.6-1.06,1.98
	l-0.01,0.01c-1.76,0.91-3.47,1.99-5.1,3.24c-0.87,0.67-1.69,1.37-2.49,2.1c-0.55,0.52-1.34,0.67-2.03,0.4l-7.08-2.78
	c-0.97-0.38-2.07,0.05-2.52,0.97l-3.71,7.51c-0.1,0.21-0.16,0.44-0.19,0.66c-0.07,0.72,0.26,1.45,0.89,1.86l4.83,3.07
	c0.59,0.38,0.93,1.05,0.9,1.73c-0.01,0.18-0.04,0.36-0.1,0.54c-1.47,4.31-2.05,8.86-1.74,13.4c0.06,0.77-0.36,1.49-1.03,1.85
	c-0.1,0.05-0.2,0.09-0.31,0.13l-6.53,2.06c-0.95,0.3-1.52,1.26-1.33,2.24l0.04,0.19l1.61,8.05
	C1000.2,224.77,1001.13,225.45,1002.16,225.33z M1058.75,200.21c0.51,1.27,0.91,2.63,1.2,4.09c0.54,2.78-0.02,7.17-1.28,9.71
	c-0.13,0.27-0.27,0.54-0.41,0.81c-8.66,16.07-31.35,12.87-35.08-5.26c-0.48-2.37-0.18-5.82,0.66-8.47c0.21-0.61,0.43-1.18,0.68-1.67
	c1.16-2.31,2.59-4.24,4.22-5.81C1038.07,184.66,1053.63,187.59,1058.75,200.21z"/>
<path class="st4" d="M592.26,640.63c0,0,0.99-10.74-11.02-10.74c0,0,3.64,0.99,5.52,2.96c0,0-7.66-4.49-15.99,2.41
	c-8.33,6.91-3.15,24.22-5.69,27.51s-12.4,3.95-11.19,14.58c1.21,10.63,31.31,23.95,29.38,32.75c0,0,11.8-17.34,3.36-25.26
	c0,0,4.11,3.87,4.53,8.48c0,0,1.12-8.99-4.6-11.86c-5.06-2.54-9.21-11.85-8.77-13.51C578.23,666.28,592.26,640.63,592.26,640.63z"/>
<path class="st5" d="M580.44,692.21c0,0,8.97,37.09,17.77,44.51c5.29,4.46,21.02,14.69,21.02,14.69l-6.54,2.37
	c0,0-21.82-7.37-26.7-13.11c-4.88-5.74-18.26-34.52-18.26-34.52L580.44,692.21z"/>
<path class="st6" d="M496.17,757.38c0.08,0.14,0.16,0.29,0.25,0.44c1.96,3.41,6.46,11.77,11.42,20.91c2.35,4.34,4.8,8.86,7.13,13.1
	c4.01,7.33,7.66,13.87,9.79,17.32c2.17,3.51,3.76,5.98,4.41,6.96c0.01,0.01,0.01,0.01,0.01,0.01c0.19,0.3,0.24,0.66,0.21,1.02
	c-0.23,3.1-0.16,6.17,0.14,9.2c2.99,29.75,23.05,45.69,23.05,45.69l5.96,0.88c0,0-8.44-31.27-10.93-48.95
	c-0.42-3-0.6-5.42-0.46-7.01c0.44-4.61-0.38-11.37-1.93-19.13c-2.75-13.8-7.81-30.73-12.2-44.29c-0.28-0.87-8.67-31.21-8.67-31.21
	c-7.04,6.15-32.72,8.69-32.72,8.69S487.29,741.59,496.17,757.38z"/>
<path class="st1" d="M571.06,880.45h-24.89c0,0-0.6-3.79,0.7-6.67c1.25-2.76,3.02-2.85,0.23-7.18c1.58,1.63,6.67,2.3,10.27,1.82
	c0.44,0.71,2.84,5.51,4.32,6.57C563.31,876.16,570.56,875.74,571.06,880.45z"/>
<path class="st7" d="M496.17,757.38c0.08,0.14,0.16,0.29,0.25,0.44c1.96,3.41,12.57,23.01,17.53,32.15
	c-5.74-23.63-1.75-47.27-1.75-47.27L496.17,757.38z"/>
<path class="st4" d="M588.86,639.12c0.16-0.65-14.22,6.5-14.95,7.31c-6.74,7.48-4.82,17.24-0.96,17.34c2.48,0.06,2,4.18,2,4.18
	l27.57-11.66C602.52,656.28,599.2,636.92,588.86,639.12z"/>
<path class="st2" d="M579.59,686.64c0,0,4.2,8.38,3.67,15.19c0,0-5.06,7.99-18.18,10.01C565.08,711.83,576.37,686.63,579.59,686.64z
	"/>
<path class="st6" d="M515.58,732.86l0.08-4.66c-9.28,1.17-31.99-11.09-31.99-11.09s-9.71,6.46-11.03,24.89
	c-0.65,9-4.75,47.05-5.2,58.41c-0.17,4.12-0.22,7.06-0.24,8.23c0,0.01,0,0.01,0,0.01c-0.01,0.36-0.17,0.67-0.39,0.96
	c-1.92,2.44-3.58,5.02-5.03,7.71c-14.16,26.34-6.75,62.12-6.75,62.12l3.29-0.84c0,0,11.97-37.1,19.79-53.15
	c1.33-2.72,2.53-4.84,3.54-6.06c2.94-3.57,6.04-9.64,9.1-16.94C496.53,788.66,515.58,732.86,515.58,732.86z"/>
<path class="st1" d="M474.82,880.45h-24.89c0,0-0.6-3.79,0.7-6.67c1.25-2.76,3.2-4.02,2.73-7.36c1.58,1.63,4.16,3.45,7.76,2.97
	c0.44,0.72,2.85,4.54,4.32,5.6C467.07,876.16,474.32,875.74,474.82,880.45z"/>
<path class="st2" d="M563.4,717.18c-3.34,0.57,0.55,3.23-4.05,3.73c-6.55,0.71-13.3,1.2-16.85,2.62c-1.29,0.51-2.15,1.15-2.42,1.96
	c-1.53,4.61-11.25,12.54-11.25,12.54c-43.35-1.97-46.14-21.29-46.14-21.29c28.13-27.32,52.07-42.22,71.85-44.06
	c4.81-0.45,11.3,0.15,14.35,1.51c6.92,3.08,10.71,12.45,10.71,12.45S576.11,715.01,563.4,717.18z"/>
<path class="st8" d="M559.35,720.91c-6.55,0.71-13.3,1.2-16.85,2.62c-1.45-21.62,8.76-37.88,8.76-37.88S557.92,712.73,559.35,720.91
	z"/>
<path class="st5" d="M568.51,675.97c1.24,3.88,5.36,14.92,11.08,10.67c-0.19-0.82,1.01-3.22,2.42-5.66
	c1.81-3.11,3.97-6.29,3.97-6.29l-9.32-8.16l-0.56-0.49c-2.44,4.25-4.83,6.3-6.93,7.87C568.54,674.39,568.27,675.21,568.51,675.97z"
	/>
<path class="st9" d="M585.98,674.7c0,0-2.15,3.17-3.96,6.29c-5.79-3.57-5.8-10.74-5.35-14.45L585.98,674.7z"/>
<path class="st5" d="M586.24,678.79c0,0-14.06-7.82-9.05-16.51c5.01-8.68,6.56-15.54,15.75-10.91c9.19,4.63,9.01,8.94,8.04,12.24
	C600.02,666.92,590.03,680.6,586.24,678.79z"/>
<path class="st4" d="M603.36,658.55c-0.64-3.85-2.6-4.22-3.97-3.97c-5.19-8.59-13.68-5.24-13.68-5.24
	c-4.53,5.69-11.08,6.66-11.08,6.66s1.63,3.04,8.35,4.92c2.05,0.57,4.38,0.23,6.63-0.53c-4.66,2.6-9.54,3.6-9.54,3.6
	c8.86,0.81,17.29-7.29,18.16-8.16c0.41,1.26,1.13,3.88,0.7,5.8c-0.58,2.61-2.9,7.34-1.49,7.95
	C597.45,669.59,604.32,664.33,603.36,658.55z"/>
<g>
	
		<rect x="625.93" y="794.05" transform="matrix(0.8989 0.4382 -0.4382 0.8989 423.8739 -218.016)" class="st6" width="116.72" height="30.61"/>
	<g>
		<path class="st6" d="M592.3,803.29c-9.63-4.7-16.47-13.39-18.78-23.87c-0.93-4.25,1.76-8.46,6.01-9.39
			c4.25-0.93,8.46,1.75,9.39,6.01c1.26,5.74,5.01,10.51,10.29,13.08c9.46,4.61,20.92,0.67,25.53-8.8c4.61-9.46,0.67-20.92-8.8-25.53
			c-4.3-2.1-9.19-2.5-13.77-1.15c-4.18,1.23-8.56-1.15-9.79-5.33c-1.23-4.18,1.15-8.56,5.33-9.79c8.37-2.47,17.3-1.73,25.14,2.1
			c17.28,8.42,24.48,29.33,16.06,46.61C630.49,804.51,609.58,811.71,592.3,803.29z"/>
	</g>
	<g>
		<path class="st6" d="M740.73,875.65c-17.28-8.42-24.48-29.33-16.06-46.61c8.42-17.28,29.33-24.48,46.61-16.06
			c7.85,3.83,13.93,10.4,17.14,18.51c1.6,4.05-0.39,8.63-4.43,10.23c-4.05,1.6-8.63-0.38-10.23-4.43
			c-1.76-4.44-5.09-8.04-9.39-10.14c-9.46-4.61-20.92-0.67-25.53,8.8c-4.61,9.46-0.67,20.92,8.8,25.53
			c5.28,2.57,11.34,2.59,16.64,0.05c3.92-1.88,8.63-0.23,10.52,3.7c1.88,3.93,0.23,8.63-3.7,10.52
			C761.43,880.38,750.36,880.35,740.73,875.65z"/>
	</g>
	<path class="st7" d="M705.69,824.3l-55.27-26.95c-1.59-0.77-2.25-2.7-1.48-4.29l1.41-2.88c0.77-1.59,2.7-2.25,4.29-1.48
		l55.27,26.95c1.59,0.77,2.25,2.7,1.48,4.29l-1.4,2.88C709.21,824.41,707.28,825.07,705.69,824.3z"/>
</g>
<path class="st5" d="M578.19,775.34c0,0,0.3,2.62,1.41,3.97c1.11,1.35,4.33,4.63,4.39,6.54c0,0-0.16,0.85-0.85,0.7
	c-0.69-0.16-3.09-2.53-4.32-2.36c0,0,0.66,3.84,1.31,4.92c0.65,1.08,1.85,5.16,1.46,6.09s-6.91-4.5-8.88-7.15
	c-1.97-2.66-0.03-13.43-0.03-13.43L578.19,775.34z"/>
<path class="st5" d="M565,681.98c0,0-16.46-0.9-19.39,9.44c-2.92,10.34,5.49,51.59,7.3,55.85c3.3,7.75,19.37,29.88,19.37,29.88
	l5.91-1.8c0,0-10.71-33.8-13.11-37.14C561.33,732.95,569.93,686.48,565,681.98z"/>
<path class="st2" d="M542.36,705.24c0.04,0.24,15.58,2.86,25.29-2.07c0,0,8.12-25.43-3.48-24.21c-11.6,1.22-18.47,4.87-18.76,10.42
	C545.12,694.93,542.36,705.24,542.36,705.24z"/>
<path class="st5" d="M611.14,734.87c-0.78,0.04-2.21,0.29-2.73,0.69c-0.9,0.69-1.91,1.9,0.1,2.9c3.02,1.5,9.05,0.84,8.81-0.07
	C616.59,735.53,615.5,734.67,611.14,734.87z"/>
<path class="st5" d="M698.03,330.04c-0.79,0.91-0.89,1.93-0.5,3.01c0,0,0,0.01,0.01,0.01c0.73,2.01,3.13,4.25,5.91,6.49
	c0.36,0.29,0.67,0.55,0.95,0.79c0.07,0.06,0.14,0.13,0.21,0.19c0.06,0.05,0.11,0.1,0.16,0.15c2.6,2.4,1.62,2.95,6.29,7.81
	c5.33,5.54,8.99,5.64,10.04,5.14c0.88-0.43-0.91-3.37-2.9-6.67c-0.1-0.16-0.19-0.32-0.29-0.48c-0.26-0.44-0.53-0.88-0.79-1.33
	c-2.33-3.98-1.73-5.84-1.18-11.76c0.45-4.81,7.48-26.86,7.48-26.86l-10.21-1.76c0,0-3.07,17.56-6.46,20.26
	c-1.81,1.44-3.84,1.46-5.58,2.53c-0.12,0.07-0.24,0.15-0.36,0.23C699.84,328.46,698.83,329.13,698.03,330.04z"/>
<path class="st7" d="M698.03,330.04c-0.79,0.91-0.89,1.93-0.5,3.01c0,0,0,0.01,0.01,0.01c0.89,2.01,3.23,4.24,5.92,6.47
	c0.35,0.29,0.66,0.56,0.94,0.81c0.07,0.06,0.14,0.13,0.21,0.19c0.06,0.05,0.11,0.1,0.16,0.15c2.6,2.4,1.62,2.95,6.29,7.81
	c5.33,5.54,8.99,5.64,10.04,5.14c0.88-0.43-0.91-3.37-2.9-6.67c-1.04-0.38-5.85-2.34-9.49-6.99c-3.21-4.09-5.35-9.35-7.53-12.4
	c-0.12,0.07-0.24,0.15-0.36,0.23C699.84,328.46,698.83,329.13,698.03,330.04z"/>
<path class="st5" d="M780.33,323.67c0.63,3.15,5.12,2.62,10.14,1.4c5.02-1.23,3.82,0.23,10.96-0.56c7.14-0.79,9.3-3.45,9.52-4.51
	c0.19-0.94-3.33-1.27-7.12-1.71c-0.48-0.05-0.95-0.11-1.43-0.17c-4.27-0.54-7.4-3.29-11.28-5.56c-3.68-2.14-9.16-10.88-9.16-10.88
	l-9.79,0.78c0,0,5.14,7.8,7.13,11.2c1.17,2,1.11,4.63,0.96,6.67C780.18,321.43,780.1,322.56,780.33,323.67z"/>
<path class="st7" d="M790.46,325.07c5.02-1.23,3.82,0.23,10.96-0.56c7.14-0.79,9.3-3.45,9.52-4.51c0.19-0.94-3.33-1.27-7.12-1.71
	l-0.04,0.07c0,0-4.28,3.04-10.23,3.18c-4.84,0.12-9.98-1.27-13.32-1.22c-0.08,1.11-0.15,2.24,0.08,3.35
	C780.96,326.82,785.45,326.3,790.46,325.07z"/>
<path class="st7" d="M742.8,261.06l-9.15,24.63l-11.95,32.16c0,0-3.24,0.31-6.35-0.58c-2.86-0.83-6.14-2.99-6.14-2.99
	s3.32-34.53,9.51-54.36c1.59-5.09,3.36-9.2,5.33-11.52C733.64,237.06,742.8,261.06,742.8,261.06z"/>
<path class="st6" d="M733.49,221.94c-6-1.93-23.1,0.55-40.28,3.91l-3.6-5.93l-37.11-2.9c0,0-12.25,27.16-5.54,44.46
	c0.99,2.54,2.94,4.17,6.28,4.23c0,0,0.54,0,0.54,0c0,0,22.09-0.01,29.26-0.01c18.46,0,39.06-12.69,41.73-13.22
	c4.36-0.87,6.11,7.85,10.47,17.01c4.36,9.16,41.01,40.57,41.01,40.57s5.63,0.06,7.96-0.82c2.5-0.94,3.42-2.16,3.42-2.16
	S747.02,226.3,733.49,221.94z"/>
<path class="st4" d="M677.32,106.94c-5.2-1.34-12.32-0.01-13.5,0.11c-14.12,1.39-18.87,17.14-16.73,29.36
	c1.97,11.28-3.75,14.4-10.38,23.31c-13.29,17.86-4.61,32.92,5.88,36.81c6.29,2.33,15.03-3.55,15.03-3.55
	c0.16,0.06,27.46-17.88,38.65-28C714.91,157.69,690.57,110.35,677.32,106.94z"/>
<path class="st5" d="M679.4,158.6c0.37,1.31-5.81,3.71-10.52,2.83c-4.44-0.83-9.41-6.02-8.38-6.51c1.7-0.81,2.84-2.81,1.91-13.66
	l0.84,0.1l14.19,1.62c0,0,0.04,4.42,0.37,8.56C678.09,155.02,678.8,156.47,679.4,158.6z"/>
<path class="st9" d="M677.45,142.98c0,0,0.04,4.42,0.37,8.56c-7.83,0.42-12.55-6.37-14.56-10.18L677.45,142.98z"/>
<path class="st5" d="M680.38,146.68c0,0-18.47,1.82-19.42-9.7c-0.96-11.52-3.98-19.04,7.76-20.69c11.75-1.65,14.41,2.55,15.66,6.32
	C685.64,126.39,685.16,145.91,680.38,146.68z"/>
<path class="st4" d="M678.4,114.48c0,0-2.33,14.07-12.84,17.41c-7.67,2.44-11.15,0.83-11.15,0.83s3.69-4.9,5.01-11.71
	c0.39-2.01,1.81-3.66,3.76-4.3C668.62,114.92,675.23,110.02,678.4,114.48z"/>
<path class="st4" d="M674.92,117.48c0,0,3.48,0.78,6.56,5.27c1.69,2.45,3.64,8.64,3.3,11.38c0,0,3.23-13.02-1.48-17.87
	C678.31,111.12,674.92,117.48,674.92,117.48z"/>
<path class="st2" d="M646.15,196.43c0.33,1.4,0.61,2.69,0.84,3.87c0.38,1.92,0.63,3.57,0.82,5.02c0.56,4.54,0.39,7.23,0.78,10.18
	c0.21,1.65,0.6,3.37,1.38,5.54c0.76,2.11,20.83,3.99,32.25,3.23c3.63-0.24,6.39-0.75,7.37-1.59c4.07-3.54,3.67,4.24,4.22-32.98
	c0.27-18.16-15.41-34.33-15.41-34.33s-1.25,7.76-16.8-1.47c-0.55-0.32-6.67,8.74-12.57,19.91
	C642.54,186.14,644.32,188.75,646.15,196.43z"/>
<path class="st7" d="M733.65,285.69l-11.95,32.16c0,0-3.24,0.31-6.35-0.58c-2.86-0.83-6.14-2.99-6.14-2.99s3.32-34.53,9.51-54.36
	L733.65,285.69z"/>
<path class="st2" d="M678.4,155.38c0,0,16,2.71,17.88,9.6c1.88,6.89,14.86,45.41,14.86,45.41s-10.06,3.43-13.81-0.33
	c-3.76-3.76-13.07-34.85-13.07-34.85L678.4,155.38z"/>
<path class="st3" d="M676.12,139.89c0,0,0.77,1.89,2.82,1.89c2.04,0,2.6-0.31,2.98-0.74c0.39-0.43,0.77-1.27,0.77-1.27
	S679.3,139.11,676.12,139.89z"/>
<path class="st8" d="M647.81,205.33c0.56,4.54,0.39,7.23,0.78,10.18c14.52,0.05,33.94-11.22,33.94-11.22L647.81,205.33z"/>
<path class="st8" d="M682.53,194.76c0,0-22.63-0.67-26.44-13.54c-4.19-14.13-8.88,5.81-8.88,5.81l2.5,12.73h24.82L682.53,194.76z"/>
<g>
	<path class="st10" d="M721.97,159.86l-1.22-3.03c-1.31-3.25-4.46-5.37-7.96-5.37h-22.56v14.31v61.11h93.31v-61.11h-52.8
		C726.89,165.78,723.42,163.44,721.97,159.86z"/>
	<g>
		<path class="st3" d="M704.31,197.33v-5.44l19.07-8.35v5.56l-13.32,5.48l13.32,5.48v5.63L704.31,197.33z"/>
		<path class="st3" d="M743.19,177.04h5.08l-17.45,36.48h-5.08L743.19,177.04z"/>
		<path class="st3" d="M769.47,191.89v5.44l-19.07,8.35v-5.55l13.32-5.48l-13.32-5.48v-5.63L769.47,191.89z"/>
	</g>
</g>
<path class="st5" d="M682.53,197.74l1.64-2.57c0,0,1.3-0.42,3.11-1.7c2.16-1.52,1.88-3.79,2.96-3.55l0.01,5l-0.12,0.02
	c4.64,1.24,10.06-0.11,10.17,1.05c0.3,3.18-2.16,4.61-4.22,5.6c-1.58,0.76-3.37,1.9-6.21,1.02c-2.08-0.65-5.35-1.31-5.35-1.31
	L682.53,197.74z"/>
<path class="st2" d="M661.6,153.91c0,0-14.69,0.96-18.36,6.69c-3.67,5.73-8.23,34.81-6.32,44.8c1.91,9.99,48.95-1.91,48.95-1.91
	l-1.5-8.67c0,0-27.15,0.16-28.69-3.38C653.62,186.74,661.6,153.91,661.6,153.91z"/>
<path class="st5" d="M732.5,165.74c-0.13,0.38,2.21,4.23,5.54,3.56c2.08-0.42,4.78-4.89,2.41-5.88
	C736.49,161.78,732.84,164.73,732.5,165.74z"/>
<g>
	<g>
		
			<rect x="845.21" y="316.25" transform="matrix(0.4709 -0.8822 0.8822 0.4709 198.5902 964.1906)" class="st6" width="115.84" height="0.56"/>
	</g>
	<g>
		
			<rect x="1099.2" y="253.4" transform="matrix(0.7334 -0.6798 0.6798 0.7334 90.1847 826.9836)" class="st6" width="0.56" height="90.21"/>
	</g>
	<g>
		<path class="st3" d="M1168.25,350.9c0.91,6.63-0.91,13.01-4.58,17.97c-3.66,4.95-9.17,8.47-15.65,9.36L873.86,415.9
			c-13.99,1.92-26.93-7.35-28.75-20.6c-0.91-6.63,1.12-13.04,5.14-18.04c4.01-5,10-8.58,17-9.55l274.17-37.67
			C1154.35,328.26,1166.43,337.65,1168.25,350.9z"/>
		<path class="st6" d="M1168.25,350.9c0.91,6.63-0.91,13.01-4.58,17.97c-3.66,4.95-9.17,8.47-15.65,9.36l-49.61,6.82l-6.62-48.19
			l49.61-6.82C1154.35,328.26,1166.43,337.65,1168.25,350.9z"/>
		<g>
			<g>
				<path class="st3" d="M1138.05,363.97c-0.61,0.08-1.23,0.12-1.86,0.12c-3.31-0.04-6.41-1.36-8.72-3.73
					c-4.78-4.89-4.69-12.75,0.2-17.53l0,0c4.89-4.78,12.75-4.69,17.53,0.2c4.78,4.89,4.69,12.75-0.2,17.53
					C1143.08,362.44,1140.66,363.61,1138.05,363.97z M1129.1,344.29c-4.08,3.99-4.16,10.56-0.17,14.64
					c1.93,1.98,4.52,3.09,7.29,3.12c2.76,0.03,5.38-1.01,7.36-2.95c4.08-3.99,4.16-10.56,0.17-14.64
					C1139.75,340.37,1133.19,340.3,1129.1,344.29L1129.1,344.29z"/>
			</g>
			
				<rect x="1121.13" y="357.1" transform="matrix(0.6989 0.7152 -0.7152 0.6989 599.355 -692.5286)" class="st3" width="2.04" height="16.92"/>
			<path class="st3" d="M1111.9,375.57L1111.9,375.57c-0.7-0.72-0.69-1.87,0.03-2.58l7.13-6.96c0.72-0.7,1.87-0.69,2.58,0.03l0,0
				c0.7,0.72,0.69,1.87-0.03,2.58l-7.13,6.96C1113.76,376.31,1112.6,376.29,1111.9,375.57z"/>
		</g>
	</g>
</g>
<path class="st2" d="M707.39,612.74h-56.37c-1.44,0-2.61-1.17-2.61-2.61v0c0-1.44,1.17-2.61,2.61-2.61h56.37
	c1.44,0,2.61,1.17,2.61,2.61v0C710,611.57,708.83,612.74,707.39,612.74z"/>
<g>
	<path class="st6" d="M678.45,630.71h-28.26c-0.98,0-1.78-0.8-1.78-1.78l0,0c0-0.98,0.8-1.78,1.78-1.78h28.26
		c0.98,0,1.78,0.8,1.78,1.78l0,0C680.23,629.91,679.43,630.71,678.45,630.71z"/>
	<g>
		<path class="st6" d="M699.97,623.23h-49.78c-0.98,0-1.78-0.8-1.78-1.78v0c0-0.98,0.8-1.78,1.78-1.78h49.78
			c0.98,0,1.78,0.8,1.78,1.78l0,0C701.75,622.43,700.95,623.23,699.97,623.23z"/>
		<path class="st6" d="M754.64,623.23h-46.25c-0.98,0-1.78-0.8-1.78-1.78v0c0-0.98,0.8-1.78,1.78-1.78h46.25
			c0.98,0,1.78,0.8,1.78,1.78l0,0C756.43,622.43,755.63,623.23,754.64,623.23z"/>
		<path class="st6" d="M713.7,630.71h-28.26c-0.98,0-1.78-0.8-1.78-1.78l0,0c0-0.98,0.8-1.78,1.78-1.78h28.26
			c0.98,0,1.78,0.8,1.78,1.78l0,0C715.48,629.91,714.68,630.71,713.7,630.71z"/>
	</g>
</g>
<path class="st2" d="M777.14,612.74h-56.37c-1.44,0-2.61-1.17-2.61-2.61v0c0-1.44,1.17-2.61,2.61-2.61h56.37
	c1.44,0,2.61,1.17,2.61,2.61l0,0C779.75,611.57,778.58,612.74,777.14,612.74z"/>
<g>
	<path class="st2" d="M707.39,652.09h-56.37c-1.44,0-2.61-1.17-2.61-2.61l0,0c0-1.44,1.17-2.61,2.61-2.61h56.37
		c1.44,0,2.61,1.17,2.61,2.61v0C710,650.92,708.83,652.09,707.39,652.09z"/>
	<g>
		<path class="st6" d="M678.45,670.06h-28.26c-0.98,0-1.78-0.8-1.78-1.78l0,0c0-0.99,0.8-1.78,1.78-1.78h28.26
			c0.98,0,1.78,0.8,1.78,1.78l0,0C680.23,669.26,679.43,670.06,678.45,670.06z"/>
		<g>
			<path class="st6" d="M699.97,662.58h-49.78c-0.98,0-1.78-0.8-1.78-1.78v0c0-0.98,0.8-1.78,1.78-1.78h49.78
				c0.98,0,1.78,0.8,1.78,1.78l0,0C701.75,661.78,700.95,662.58,699.97,662.58z"/>
			<path class="st6" d="M754.64,662.58h-46.25c-0.98,0-1.78-0.8-1.78-1.78v0c0-0.98,0.8-1.78,1.78-1.78h46.25
				c0.98,0,1.78,0.8,1.78,1.78l0,0C756.43,661.78,755.63,662.58,754.64,662.58z"/>
			<path class="st6" d="M713.7,670.06h-28.26c-0.98,0-1.78-0.8-1.78-1.78l0,0c0-0.99,0.8-1.78,1.78-1.78h28.26
				c0.98,0,1.78,0.8,1.78,1.78l0,0C715.48,669.26,714.68,670.06,713.7,670.06z"/>
		</g>
	</g>
	<path class="st2" d="M777.14,652.09h-56.37c-1.44,0-2.61-1.17-2.61-2.61l0,0c0-1.44,1.17-2.61,2.61-2.61h56.37
		c1.44,0,2.61,1.17,2.61,2.61v0C779.75,650.92,778.58,652.09,777.14,652.09z"/>
</g>
<g>
	<polygon class="st7" points="1005.57,412.93 972.86,420.55 956.68,449.98 944.33,382.9 	"/>
	
		<rect x="976.15" y="412.38" transform="matrix(0.797 -0.604 0.604 0.797 -60.7584 678.5732)" class="st7" width="5.98" height="34.6"/>
</g>
<g>
	<path class="st0" d="M980.87,551.6H907c-5.07,0-9.18-4.11-9.18-9.18v-73.86c0-5.07,4.11-9.18,9.18-9.18h73.86
		c5.07,0,9.18,4.11,9.18,9.18v73.87C990.05,547.49,985.94,551.6,980.87,551.6z"/>
	<g>
		<path class="st6" d="M909.6,532.31L927.52,500c2.09-3.76,7.37-4.09,9.91-0.63l10.34,14.1c2.2,3,6.59,3.24,9.1,0.49l0,0
			c2.61-2.85,7.2-2.47,9.3,0.77l11.16,17.22c2.54,3.92-0.27,9.1-4.95,9.1h-57.62C910.26,541.06,907.42,536.23,909.6,532.31z"/>
		<path class="st6" d="M944.97,484.89c0-3.89,3.16-7.05,7.05-7.05c3.89,0,7.05,3.16,7.05,7.05c0,3.89-3.16,7.05-7.05,7.05
			C948.13,491.94,944.97,488.79,944.97,484.89z"/>
	</g>
</g>
<g>
	<path class="st0" d="M1102.15,554.08l-79.7,10.87c-3.23,0.44-6.2-1.82-6.64-5.04l-10.87-79.7c-0.44-3.23,1.82-6.2,5.04-6.64
		l79.7-10.87c3.23-0.44,6.2,1.82,6.64,5.04l10.87,79.7C1107.63,550.67,1105.37,553.64,1102.15,554.08z"/>
	<g>
		<path class="st6" d="M1025.67,545.04l13.39-34.44c1.56-4.01,6.75-5.05,9.73-1.96l12.15,12.57c2.58,2.67,6.97,2.32,9.09-0.74l0,0
			c2.2-3.17,6.8-3.42,9.32-0.49l13.38,15.56c3.05,3.54,0.96,9.05-3.67,9.68l-57.09,7.79
			C1027.51,553.63,1024.04,549.23,1025.67,545.04z"/>
		<path class="st6" d="M1054.31,493.29c-0.53-3.86,2.17-7.41,6.03-7.94c3.86-0.53,7.41,2.17,7.94,6.03
			c0.53,3.86-2.17,7.41-6.03,7.94C1058.39,499.85,1054.83,497.14,1054.31,493.29z"/>
	</g>
</g>
<g>
	<rect x="821.31" y="839.01" class="st2" width="46.48" height="39.85"/>
	<rect x="819.43" y="837.31" class="st1" width="49.93" height="3.08"/>
	<rect x="821.31" y="849.79" class="st1" width="46.48" height="12.66"/>
</g>
<path class="st2" d="M924.34,878.89h-43.89c-1.61,0-2.91-1.3-2.91-2.91v-4.87c0-1.73,1.51-3.08,3.23-2.89l43.89,4.87
	c1.47,0.16,2.59,1.41,2.59,2.89l0,0C927.25,877.59,925.95,878.89,924.34,878.89z"/>
<path class="st7" d="M1394.49,882.78l-981.8-0.34c-0.66,0-1.2-0.67-1.2-1.49l0-0.76c0-0.82,0.54-1.49,1.2-1.49l981.8,0.34
	c0.66,0,1.2,0.67,1.2,1.49v0.76C1395.69,882.11,1395.15,882.78,1394.49,882.78z"/>
<g>
	<path class="st6" d="M847.68,555.22h-5.06c-0.46,0-0.83-0.37-0.83-0.83c0-0.46,0.37-0.83,0.83-0.83h5.02
		c0.46,0,0.85,0.37,0.85,0.83C848.49,554.85,848.13,555.22,847.68,555.22z M837.59,555.22h-5.02c-0.46,0-0.83-0.37-0.83-0.83
		c0-0.46,0.37-0.83,0.83-0.83h5.02c0.46,0,0.83,0.37,0.83,0.83C838.43,554.85,838.05,555.22,837.59,555.22z M827.55,555.22h-5.02
		c-0.46,0-0.83-0.37-0.83-0.83c0-0.46,0.37-0.83,0.83-0.83h5.02c0.46,0,0.83,0.37,0.83,0.83
		C828.38,554.85,828.01,555.22,827.55,555.22z M817.5,555.22h-5.02c-0.46,0-0.83-0.37-0.83-0.83c0-0.46,0.37-0.83,0.83-0.83h5.02
		c0.46,0,0.83,0.37,0.83,0.83C818.33,554.85,817.96,555.22,817.5,555.22z M807.45,555.22h-5.02c-0.46,0-0.83-0.37-0.83-0.83
		c0-0.46,0.37-0.83,0.83-0.83h5.02c0.46,0,0.83,0.37,0.83,0.83C808.28,554.85,807.91,555.22,807.45,555.22z M797.41,555.22h-5.02
		c-0.46,0-0.83-0.37-0.83-0.83c0-0.46,0.37-0.83,0.83-0.83h5.02c0.46,0,0.83,0.37,0.83,0.83
		C798.24,554.85,797.86,555.22,797.41,555.22z M787.36,555.22h-5.02c-0.46,0-0.83-0.37-0.83-0.83c0-0.46,0.37-0.83,0.83-0.83h5.02
		c0.46,0,0.83,0.37,0.83,0.83C788.19,554.85,787.82,555.22,787.36,555.22z M777.31,555.22h-5.02c-0.46,0-0.83-0.37-0.83-0.83
		c0-0.46,0.37-0.83,0.83-0.83h5.02c0.46,0,0.83,0.37,0.83,0.83C778.14,554.85,777.77,555.22,777.31,555.22z M767.26,555.22h-5.02
		c-0.46,0-0.83-0.37-0.83-0.83c0-0.46,0.37-0.83,0.83-0.83h5.02c0.46,0,0.83,0.37,0.83,0.83
		C768.09,554.85,767.72,555.22,767.26,555.22z M757.22,555.22h-5.02c-0.46,0-0.83-0.37-0.83-0.83c0-0.46,0.37-0.83,0.83-0.83h5.02
		c0.46,0,0.83,0.37,0.83,0.83C758.05,554.85,757.68,555.22,757.22,555.22z M747.17,555.22h-5.02c-0.46,0-0.83-0.37-0.83-0.83
		c0-0.46,0.37-0.83,0.83-0.83h5.02c0.46,0,0.83,0.37,0.83,0.83C748,554.85,747.63,555.22,747.17,555.22z M737.12,555.22h-5.02
		c-0.46,0-0.83-0.37-0.83-0.83c0-0.46,0.37-0.83,0.83-0.83h5.02c0.46,0,0.83,0.37,0.83,0.83
		C737.95,554.85,737.58,555.22,737.12,555.22z M727.07,555.22h-5.02c-0.46,0-0.83-0.37-0.83-0.83c0-0.46,0.37-0.83,0.83-0.83h5.02
		c0.46,0,0.83,0.37,0.83,0.83C727.91,554.85,727.53,555.22,727.07,555.22z M717.03,555.22H712c-0.46,0-0.83-0.37-0.83-0.83
		c0-0.46,0.37-0.83,0.83-0.83h5.02c0.46,0,0.83,0.37,0.83,0.83C717.86,554.85,717.49,555.22,717.03,555.22z M706.98,555.22h-5.02
		c-0.46,0-0.83-0.37-0.83-0.83c0-0.46,0.37-0.83,0.83-0.83h5.02c0.46,0,0.83,0.37,0.83,0.83
		C707.81,554.85,707.44,555.22,706.98,555.22z M696.93,555.22h-5.02c-0.46,0-0.83-0.37-0.83-0.83c0-0.46,0.37-0.83,0.83-0.83h5.02
		c0.46,0,0.83,0.37,0.83,0.83C697.76,554.85,697.39,555.22,696.93,555.22z M686.89,555.22h-5.02c-0.46,0-0.83-0.37-0.83-0.83
		c0-0.46,0.37-0.83,0.83-0.83h5.02c0.46,0,0.83,0.37,0.83,0.83C687.72,554.85,687.34,555.22,686.89,555.22z M676.84,555.22h-4.48
		c-0.2,0-0.4-0.01-0.6-0.02c-0.46-0.03-0.81-0.42-0.78-0.88c0.03-0.46,0.42-0.81,0.88-0.78c0.16,0.01,0.33,0.02,0.49,0.02h4.48
		c0.46,0,0.83,0.37,0.83,0.83C677.67,554.85,677.3,555.22,676.84,555.22z M852.4,553.76c-0.27,0-0.53-0.13-0.69-0.36
		c-0.26-0.38-0.16-0.9,0.22-1.16c1.27-0.86,2.24-2.06,2.81-3.47c0.17-0.43,0.66-0.63,1.08-0.46c0.43,0.17,0.63,0.66,0.46,1.08
		c-0.69,1.72-1.87,3.18-3.41,4.23C852.73,553.71,852.56,553.76,852.4,553.76z M667.18,553.46c-0.18,0-0.36-0.06-0.51-0.17
		c-1.48-1.14-2.57-2.67-3.15-4.43c-0.15-0.44,0.09-0.91,0.53-1.05c0.43-0.14,0.91,0.09,1.05,0.53c0.48,1.44,1.38,2.7,2.59,3.64
		c0.36,0.28,0.43,0.8,0.15,1.17C667.68,553.35,667.43,553.46,667.18,553.46z M856.13,544.96c-0.46,0-0.83-0.37-0.83-0.83v-5.02
		c0-0.46,0.37-0.83,0.83-0.83c0.46,0,0.83,0.37,0.83,0.83v5.02C856.96,544.59,856.58,544.96,856.13,544.96z M663.88,544.45
		c-0.46,0-0.83-0.37-0.83-0.83v-5.02c0-0.46,0.37-0.83,0.83-0.83s0.83,0.37,0.83,0.83v5.02
		C664.71,544.08,664.34,544.45,663.88,544.45z M856.13,534.92c-0.46,0-0.83-0.37-0.83-0.83v-5.02c0-0.46,0.37-0.83,0.83-0.83
		c0.46,0,0.83,0.37,0.83,0.83v5.02C856.96,534.54,856.58,534.92,856.13,534.92z M663.88,534.4c-0.46,0-0.83-0.37-0.83-0.83v-5.02
		c0-0.46,0.37-0.83,0.83-0.83s0.83,0.37,0.83,0.83v5.02C664.71,534.03,664.34,534.4,663.88,534.4z M856.13,524.87
		c-0.46,0-0.83-0.37-0.83-0.83v-5.02c0-0.46,0.37-0.83,0.83-0.83c0.46,0,0.83,0.37,0.83,0.83v5.02
		C856.96,524.5,856.58,524.87,856.13,524.87z M663.88,524.36c-0.46,0-0.83-0.37-0.83-0.83v-5.02c0-0.46,0.37-0.83,0.83-0.83
		s0.83,0.37,0.83,0.83v5.02C664.71,523.99,664.34,524.36,663.88,524.36z M856.13,514.82c-0.46,0-0.83-0.37-0.83-0.83v-5.02
		c0-0.46,0.37-0.83,0.83-0.83c0.46,0,0.83,0.37,0.83,0.83v5.02C856.96,514.45,856.58,514.82,856.13,514.82z M663.88,514.31
		c-0.46,0-0.83-0.37-0.83-0.83v-5.02c0-0.46,0.37-0.83,0.83-0.83s0.83,0.37,0.83,0.83v5.02
		C664.71,513.94,664.34,514.31,663.88,514.31z M856.13,504.77c-0.46,0-0.83-0.37-0.83-0.83v-5.02c0-0.46,0.37-0.83,0.83-0.83
		c0.46,0,0.83,0.37,0.83,0.83v5.02C856.96,504.4,856.58,504.77,856.13,504.77z M663.88,504.26c-0.46,0-0.83-0.37-0.83-0.83v-5.02
		c0-0.46,0.37-0.83,0.83-0.83s0.83,0.37,0.83,0.83v5.02C664.71,503.89,664.34,504.26,663.88,504.26z M856.13,494.73
		c-0.46,0-0.83-0.37-0.83-0.83v-5.02c0-0.46,0.37-0.83,0.83-0.83c0.46,0,0.83,0.37,0.83,0.83v5.02
		C856.96,494.35,856.58,494.73,856.13,494.73z M663.88,494.22c-0.46,0-0.83-0.37-0.83-0.83v-5.02c0-0.46,0.37-0.83,0.83-0.83
		s0.83,0.37,0.83,0.83v5.02C664.71,493.84,664.34,494.22,663.88,494.22z M856.13,484.68c-0.46,0-0.83-0.37-0.83-0.83v-5.02
		c0-0.46,0.37-0.83,0.83-0.83c0.46,0,0.83,0.37,0.83,0.83v5.02C856.96,484.31,856.58,484.68,856.13,484.68z M663.88,484.17
		c-0.46,0-0.83-0.37-0.83-0.83v-5.02c0-0.46,0.37-0.83,0.83-0.83s0.83,0.37,0.83,0.83v5.02
		C664.71,483.8,664.34,484.17,663.88,484.17z M856.13,474.63c-0.46,0-0.83-0.37-0.83-0.83v-5.02c0-0.46,0.37-0.83,0.83-0.83
		c0.46,0,0.83,0.37,0.83,0.83v5.02C856.96,474.26,856.58,474.63,856.13,474.63z M663.88,474.12c-0.46,0-0.83-0.37-0.83-0.83v-5.02
		c0-0.46,0.37-0.83,0.83-0.83s0.83,0.37,0.83,0.83v5.02C664.71,473.75,664.34,474.12,663.88,474.12z M856.13,464.59
		c-0.46,0-0.83-0.37-0.83-0.83v-5.02c0-0.46,0.37-0.83,0.83-0.83c0.46,0,0.83,0.37,0.83,0.83v5.02
		C856.96,464.21,856.58,464.59,856.13,464.59z M663.88,464.07c-0.46,0-0.83-0.37-0.83-0.83v-5.02c0-0.46,0.37-0.83,0.83-0.83
		s0.83,0.37,0.83,0.83v5.02C664.71,463.7,664.34,464.07,663.88,464.07z M856.13,454.54c-0.46,0-0.83-0.37-0.83-0.83v-2.27
		c0-0.84-0.13-1.66-0.4-2.44c-0.15-0.44,0.09-0.91,0.52-1.05c0.44-0.15,0.91,0.09,1.05,0.52c0.32,0.96,0.48,1.96,0.48,2.97v2.27
		C856.96,454.17,856.58,454.54,856.13,454.54z M663.88,454.03c-0.46,0-0.83-0.37-0.83-0.83v-1.76c0-1.21,0.23-2.39,0.68-3.5
		c0.17-0.43,0.66-0.63,1.08-0.46c0.43,0.17,0.63,0.66,0.46,1.08c-0.37,0.91-0.56,1.88-0.56,2.87v1.76
		C664.71,453.65,664.34,454.03,663.88,454.03z M852.8,445.54c-0.18,0-0.35-0.06-0.51-0.17c-1.21-0.93-2.66-1.47-4.18-1.56
		c-0.46-0.03-0.81-0.42-0.78-0.88c0.03-0.46,0.43-0.81,0.88-0.78c1.86,0.11,3.62,0.77,5.09,1.9c0.36,0.28,0.43,0.8,0.15,1.17
		C853.3,445.43,853.05,445.54,852.8,445.54z M667.61,445.24c-0.27,0-0.53-0.13-0.69-0.37c-0.26-0.38-0.16-0.9,0.22-1.15
		c1.54-1.04,3.33-1.59,5.19-1.59c0,0,0,0,0,0c0.46,0,0.83,0.37,0.83,0.83c0,0.46-0.37,0.83-0.83,0.83c-1.53,0-3,0.46-4.27,1.31
		C667.94,445.19,667.77,445.24,667.61,445.24z M843.15,443.79h-5.02c-0.46,0-0.83-0.37-0.83-0.83s0.37-0.83,0.83-0.83h5.02
		c0.46,0,0.83,0.37,0.83,0.83S843.61,443.79,843.15,443.79z M833.1,443.79h-5.02c-0.46,0-0.83-0.37-0.83-0.83s0.37-0.83,0.83-0.83
		h5.02c0.46,0,0.83,0.37,0.83,0.83S833.56,443.79,833.1,443.79z M823.05,443.79h-5.02c-0.46,0-0.83-0.37-0.83-0.83
		s0.37-0.83,0.83-0.83h5.02c0.46,0,0.83,0.37,0.83,0.83S823.51,443.79,823.05,443.79z M813,443.79h-5.02
		c-0.46,0-0.83-0.37-0.83-0.83s0.37-0.83,0.83-0.83H813c0.46,0,0.83,0.37,0.83,0.83S813.46,443.79,813,443.79z M802.96,443.79h-5.02
		c-0.46,0-0.83-0.37-0.83-0.83s0.37-0.83,0.83-0.83h5.02c0.46,0,0.83,0.37,0.83,0.83S803.42,443.79,802.96,443.79z M792.91,443.79
		h-5.02c-0.46,0-0.83-0.37-0.83-0.83s0.37-0.83,0.83-0.83h5.02c0.46,0,0.83,0.37,0.83,0.83S793.37,443.79,792.91,443.79z
		 M782.86,443.79h-5.02c-0.46,0-0.83-0.37-0.83-0.83s0.37-0.83,0.83-0.83h5.02c0.46,0,0.83,0.37,0.83,0.83
		S783.32,443.79,782.86,443.79z M772.82,443.79h-5.02c-0.46,0-0.83-0.37-0.83-0.83s0.37-0.83,0.83-0.83h5.02
		c0.46,0,0.83,0.37,0.83,0.83S773.27,443.79,772.82,443.79z M762.77,443.79h-5.02c-0.46,0-0.83-0.37-0.83-0.83s0.37-0.83,0.83-0.83
		h5.02c0.46,0,0.83,0.37,0.83,0.83S763.23,443.79,762.77,443.79z M752.72,443.79h-5.02c-0.46,0-0.83-0.37-0.83-0.83
		s0.37-0.83,0.83-0.83h5.02c0.46,0,0.83,0.37,0.83,0.83S753.18,443.79,752.72,443.79z M742.67,443.79h-5.02
		c-0.46,0-0.83-0.37-0.83-0.83s0.37-0.83,0.83-0.83h5.02c0.46,0,0.83,0.37,0.83,0.83S743.13,443.79,742.67,443.79z M732.63,443.79
		h-5.02c-0.46,0-0.83-0.37-0.83-0.83s0.37-0.83,0.83-0.83h5.02c0.46,0,0.83,0.37,0.83,0.83S733.09,443.79,732.63,443.79z
		 M722.58,443.79h-5.02c-0.46,0-0.83-0.37-0.83-0.83s0.37-0.83,0.83-0.83h5.02c0.46,0,0.83,0.37,0.83,0.83
		S723.04,443.79,722.58,443.79z M712.53,443.79h-5.02c-0.46,0-0.83-0.37-0.83-0.83s0.37-0.83,0.83-0.83h5.02
		c0.46,0,0.83,0.37,0.83,0.83S712.99,443.79,712.53,443.79z M702.48,443.79h-5.02c-0.46,0-0.83-0.37-0.83-0.83s0.37-0.83,0.83-0.83
		h5.02c0.46,0,0.83,0.37,0.83,0.83S702.94,443.79,702.48,443.79z M692.44,443.79h-5.02c-0.46,0-0.83-0.37-0.83-0.83
		s0.37-0.83,0.83-0.83h5.02c0.46,0,0.83,0.37,0.83,0.83S692.9,443.79,692.44,443.79z M682.39,443.79h-5.02
		c-0.46,0-0.83-0.37-0.83-0.83s0.37-0.83,0.83-0.83h5.02c0.46,0,0.83,0.37,0.83,0.83S682.85,443.79,682.39,443.79z"/>
</g>
<g>
	<path class="st6" d="M1133.25,694.64h-4.48c-0.41,0-0.74-0.33-0.74-0.74c0-0.41,0.33-0.74,0.74-0.74h4.45
		c0.41,0,0.75,0.33,0.75,0.74C1133.97,694.31,1133.65,694.64,1133.25,694.64z M1124.31,694.64h-4.45c-0.41,0-0.74-0.33-0.74-0.74
		c0-0.41,0.33-0.74,0.74-0.74h4.45c0.41,0,0.74,0.33,0.74,0.74C1125.05,694.31,1124.72,694.64,1124.31,694.64z M1115.41,694.64
		h-4.45c-0.41,0-0.74-0.33-0.74-0.74c0-0.41,0.33-0.74,0.74-0.74h4.45c0.41,0,0.74,0.33,0.74,0.74
		C1116.15,694.31,1115.82,694.64,1115.41,694.64z M1106.51,694.64h-4.45c-0.41,0-0.74-0.33-0.74-0.74c0-0.41,0.33-0.74,0.74-0.74
		h4.45c0.41,0,0.74,0.33,0.74,0.74C1107.25,694.31,1106.92,694.64,1106.51,694.64z M1097.61,694.64h-4.45
		c-0.41,0-0.74-0.33-0.74-0.74c0-0.41,0.33-0.74,0.74-0.74h4.45c0.41,0,0.74,0.33,0.74,0.74
		C1098.35,694.31,1098.02,694.64,1097.61,694.64z M1088.71,694.64h-4.45c-0.41,0-0.74-0.33-0.74-0.74c0-0.41,0.33-0.74,0.74-0.74
		h4.45c0.41,0,0.74,0.33,0.74,0.74C1089.45,694.31,1089.12,694.64,1088.71,694.64z M1079.81,694.64h-4.45
		c-0.41,0-0.74-0.33-0.74-0.74c0-0.41,0.33-0.74,0.74-0.74h4.45c0.41,0,0.74,0.33,0.74,0.74
		C1080.55,694.31,1080.22,694.64,1079.81,694.64z M1070.91,694.64h-4.45c-0.41,0-0.74-0.33-0.74-0.74c0-0.41,0.33-0.74,0.74-0.74
		h4.45c0.41,0,0.74,0.33,0.74,0.74C1071.65,694.31,1071.32,694.64,1070.91,694.64z M1062.01,694.64h-4.45
		c-0.41,0-0.74-0.33-0.74-0.74c0-0.41,0.33-0.74,0.74-0.74h4.45c0.41,0,0.74,0.33,0.74,0.74
		C1062.74,694.31,1062.42,694.64,1062.01,694.64z M1053.11,694.64h-4.3c-0.06,0-0.13,0-0.19,0c-0.41-0.02-0.72-0.37-0.7-0.77
		c0.02-0.41,0.35-0.71,0.77-0.7c0.04,0,0.08,0,0.12,0h4.3c0.41,0,0.74,0.33,0.74,0.74C1053.84,694.31,1053.51,694.64,1053.11,694.64
		z M1136.12,691.82c-0.01,0-0.02,0-0.02,0c-0.41-0.01-0.73-0.35-0.71-0.76l0-0.07v-4.36c0-0.41,0.33-0.74,0.74-0.74
		c0.41,0,0.74,0.33,0.74,0.74l0,4.47C1136.85,691.51,1136.52,691.82,1136.12,691.82z M1045.9,691.7c-0.41,0-0.74-0.33-0.74-0.74
		v-4.45c0-0.41,0.33-0.74,0.74-0.74c0.41,0,0.74,0.33,0.74,0.74v4.45C1046.63,691.37,1046.3,691.7,1045.9,691.7z M1136.12,682.92
		c-0.41,0-0.74-0.33-0.74-0.74v-4.45c0-0.41,0.33-0.74,0.74-0.74c0.41,0,0.74,0.33,0.74,0.74v4.45
		C1136.86,682.59,1136.53,682.92,1136.12,682.92z M1045.9,682.8c-0.41,0-0.74-0.33-0.74-0.74v-4.45c0-0.41,0.33-0.74,0.74-0.74
		c0.41,0,0.74,0.33,0.74,0.74v4.45C1046.63,682.47,1046.3,682.8,1045.9,682.8z M1136.12,674.02c-0.41,0-0.74-0.33-0.74-0.74v-4.45
		c0-0.41,0.33-0.74,0.74-0.74c0.41,0,0.74,0.33,0.74,0.74v4.45C1136.86,673.69,1136.53,674.02,1136.12,674.02z M1045.9,673.9
		c-0.41,0-0.74-0.33-0.74-0.74v-4.34c0-0.05,0-0.09,0-0.14c0.02-0.41,0.34-0.73,0.77-0.71c0.41,0.02,0.72,0.36,0.71,0.77l0,0.08
		v4.34C1046.63,673.57,1046.3,673.9,1045.9,673.9z M1133.35,666.65c-0.01,0-0.02,0-0.03,0l-0.1,0h-4.31c-0.41,0-0.74-0.33-0.74-0.74
		c0-0.41,0.33-0.74,0.74-0.74h4.31c0.06,0,0.11,0,0.17,0c0.41,0.02,0.72,0.36,0.7,0.77
		C1134.07,666.34,1133.74,666.65,1133.35,666.65z M1124.45,666.65H1120c-0.41,0-0.74-0.33-0.74-0.74c0-0.41,0.33-0.74,0.74-0.74
		h4.45c0.41,0,0.74,0.33,0.74,0.74C1125.18,666.32,1124.85,666.65,1124.45,666.65z M1115.55,666.65h-4.45
		c-0.41,0-0.74-0.33-0.74-0.74c0-0.41,0.33-0.74,0.74-0.74h4.45c0.41,0,0.74,0.33,0.74,0.74
		C1116.28,666.32,1115.95,666.65,1115.55,666.65z M1106.65,666.65h-4.45c-0.41,0-0.74-0.33-0.74-0.74c0-0.41,0.33-0.74,0.74-0.74
		h4.45c0.41,0,0.74,0.33,0.74,0.74C1107.38,666.32,1107.05,666.65,1106.65,666.65z M1097.75,666.65h-4.45
		c-0.41,0-0.74-0.33-0.74-0.74c0-0.41,0.33-0.74,0.74-0.74h4.45c0.41,0,0.74,0.33,0.74,0.74
		C1098.48,666.32,1098.15,666.65,1097.75,666.65z M1088.85,666.65h-4.45c-0.41,0-0.74-0.33-0.74-0.74c0-0.41,0.33-0.74,0.74-0.74
		h4.45c0.41,0,0.74,0.33,0.74,0.74C1089.58,666.32,1089.25,666.65,1088.85,666.65z M1079.95,666.65h-4.45
		c-0.41,0-0.74-0.33-0.74-0.74c0-0.41,0.33-0.74,0.74-0.74h4.45c0.41,0,0.74,0.33,0.74,0.74
		C1080.68,666.32,1080.35,666.65,1079.95,666.65z M1071.04,666.65h-4.45c-0.41,0-0.74-0.33-0.74-0.74c0-0.41,0.33-0.74,0.74-0.74
		h4.45c0.41,0,0.74,0.33,0.74,0.74C1071.78,666.32,1071.45,666.65,1071.04,666.65z M1062.14,666.65h-4.45
		c-0.41,0-0.74-0.33-0.74-0.74c0-0.41,0.33-0.74,0.74-0.74h4.45c0.41,0,0.74,0.33,0.74,0.74
		C1062.88,666.32,1062.55,666.65,1062.14,666.65z M1053.24,666.65h-4.43c-0.41,0-0.74-0.33-0.74-0.74c0-0.41,0.32-0.74,0.73-0.74
		h4.45c0.41,0,0.74,0.33,0.74,0.74C1053.98,666.32,1053.65,666.65,1053.24,666.65z"/>
</g>
<g>
	<path class="st6" d="M815.37,429.06h-4.96c-0.46,0-0.83-0.37-0.83-0.83s0.37-0.83,0.83-0.83h4.92c0.46,0,0.85,0.37,0.85,0.83
		S815.83,429.06,815.37,429.06z M805.5,429.06h-4.92c-0.46,0-0.83-0.37-0.83-0.83s0.37-0.83,0.83-0.83h4.92
		c0.46,0,0.83,0.37,0.83,0.83S805.95,429.06,805.5,429.06z M795.65,429.06h-4.92c-0.46,0-0.83-0.37-0.83-0.83s0.37-0.83,0.83-0.83
		h4.92c0.46,0,0.83,0.37,0.83,0.83S796.11,429.06,795.65,429.06z M785.8,429.06h-4.92c-0.46,0-0.83-0.37-0.83-0.83
		s0.37-0.83,0.83-0.83h4.92c0.46,0,0.83,0.37,0.83,0.83S786.26,429.06,785.8,429.06z M775.95,429.06h-4.92
		c-0.46,0-0.83-0.37-0.83-0.83s0.37-0.83,0.83-0.83h4.92c0.46,0,0.83,0.37,0.83,0.83S776.41,429.06,775.95,429.06z M766.1,429.06
		h-4.92c-0.46,0-0.83-0.37-0.83-0.83s0.37-0.83,0.83-0.83h4.92c0.46,0,0.83,0.37,0.83,0.83S766.56,429.06,766.1,429.06z
		 M756.25,429.06h-4.92c-0.46,0-0.83-0.37-0.83-0.83s0.37-0.83,0.83-0.83h4.92c0.46,0,0.83,0.37,0.83,0.83
		S756.71,429.06,756.25,429.06z M746.49,428.53c-0.14,0-0.28-0.03-0.41-0.11c-1.54-0.87-2.5-2.52-2.5-4.28v-0.6
		c0-0.46,0.37-0.83,0.83-0.83s0.83,0.37,0.83,0.83v0.6c0,1.17,0.63,2.26,1.65,2.84c0.4,0.23,0.54,0.73,0.31,1.13
		C747.06,428.38,746.78,428.53,746.49,428.53z M819.17,426.41c-0.1,0-0.2-0.02-0.29-0.05c-0.43-0.16-0.65-0.64-0.49-1.07
		c0.14-0.37,0.21-0.75,0.21-1.15v-3.45c0-0.46,0.37-0.83,0.83-0.83s0.83,0.37,0.83,0.83v3.45c0,0.6-0.11,1.18-0.31,1.73
		C819.83,426.2,819.51,426.41,819.17,426.41z M744.42,419.44c-0.46,0-0.83-0.37-0.83-0.83v-4.92c0-0.46,0.37-0.83,0.83-0.83
		s0.83,0.37,0.83,0.83v4.92C745.25,419.07,744.88,419.44,744.42,419.44z M819.43,416.59c-0.46,0-0.83-0.37-0.83-0.83v-4.92
		c0-0.46,0.37-0.83,0.83-0.83s0.83,0.37,0.83,0.83v4.92C820.27,416.22,819.89,416.59,819.43,416.59z M744.42,409.59
		c-0.46,0-0.83-0.37-0.83-0.83v-4.92c0-0.46,0.37-0.83,0.83-0.83s0.83,0.37,0.83,0.83v4.92
		C745.25,409.22,744.88,409.59,744.42,409.59z M819.43,406.74c-0.46,0-0.83-0.37-0.83-0.83v-4.92c0-0.46,0.37-0.83,0.83-0.83
		s0.83,0.37,0.83,0.83v4.92C820.27,406.37,819.89,406.74,819.43,406.74z M744.42,399.74c-0.46,0-0.83-0.37-0.83-0.83v-4.92
		c0-0.46,0.37-0.83,0.83-0.83s0.83,0.37,0.83,0.83v4.92C745.25,399.37,744.88,399.74,744.42,399.74z M819.43,396.89
		c-0.46,0-0.83-0.37-0.83-0.83v-4.92c0-0.46,0.37-0.83,0.83-0.83s0.83,0.37,0.83,0.83v4.92
		C820.27,396.52,819.89,396.89,819.43,396.89z M744.42,389.89c-0.46,0-0.83-0.37-0.83-0.83v-4.92c0-0.46,0.37-0.83,0.83-0.83
		s0.83,0.37,0.83,0.83v4.92C745.25,389.52,744.88,389.89,744.42,389.89z M819.43,387.05c-0.46,0-0.83-0.37-0.83-0.83v-4.92
		c0-0.46,0.37-0.83,0.83-0.83s0.83,0.37,0.83,0.83v4.92C820.27,386.67,819.89,387.05,819.43,387.05z M744.42,380.04
		c-0.46,0-0.83-0.37-0.83-0.83v-4.92c0-0.46,0.37-0.83,0.83-0.83s0.83,0.37,0.83,0.83v4.92
		C745.25,379.67,744.88,380.04,744.42,380.04z M819.43,377.2c-0.46,0-0.83-0.37-0.83-0.83v-4.92c0-0.46,0.37-0.83,0.83-0.83
		s0.83,0.37,0.83,0.83v4.92C820.27,376.82,819.89,377.2,819.43,377.2z M744.42,370.2c-0.46,0-0.83-0.37-0.83-0.83v-3.44
		c0-0.6,0.11-1.19,0.32-1.75c0.16-0.43,0.64-0.64,1.07-0.48c0.43,0.16,0.64,0.64,0.48,1.07c-0.14,0.37-0.21,0.76-0.21,1.16v3.44
		C745.25,369.82,744.88,370.2,744.42,370.2z M819.43,367.35c-0.46,0-0.83-0.37-0.83-0.83v-0.59c0-1.18-0.64-2.27-1.67-2.84
		c-0.4-0.23-0.54-0.73-0.32-1.13c0.23-0.4,0.73-0.54,1.13-0.32c1.55,0.87,2.51,2.52,2.51,4.29v0.59
		C820.27,366.97,819.89,367.35,819.43,367.35z M812.51,362.67h-4.92c-0.46,0-0.83-0.37-0.83-0.83c0-0.46,0.37-0.83,0.83-0.83h4.92
		c0.46,0,0.83,0.37,0.83,0.83C813.34,362.3,812.97,362.67,812.51,362.67z M802.66,362.67h-4.92c-0.46,0-0.83-0.37-0.83-0.83
		c0-0.46,0.37-0.83,0.83-0.83h4.92c0.46,0,0.83,0.37,0.83,0.83C803.49,362.3,803.12,362.67,802.66,362.67z M792.81,362.67h-4.92
		c-0.46,0-0.83-0.37-0.83-0.83c0-0.46,0.37-0.83,0.83-0.83h4.92c0.46,0,0.83,0.37,0.83,0.83
		C793.65,362.3,793.27,362.67,792.81,362.67z M782.96,362.67h-4.92c-0.46,0-0.83-0.37-0.83-0.83c0-0.46,0.37-0.83,0.83-0.83h4.92
		c0.46,0,0.83,0.37,0.83,0.83C783.8,362.3,783.42,362.67,782.96,362.67z M773.12,362.67h-4.92c-0.46,0-0.83-0.37-0.83-0.83
		c0-0.46,0.37-0.83,0.83-0.83h4.92c0.46,0,0.83,0.37,0.83,0.83C773.95,362.3,773.57,362.67,773.12,362.67z M763.27,362.67h-4.92
		c-0.46,0-0.83-0.37-0.83-0.83c0-0.46,0.37-0.83,0.83-0.83h4.92c0.46,0,0.83,0.37,0.83,0.83
		C764.1,362.3,763.73,362.67,763.27,362.67z M753.42,362.67h-4.91c-0.46,0-0.84-0.37-0.84-0.83c0-0.46,0.36-0.83,0.82-0.83h4.92
		c0.46,0,0.83,0.37,0.83,0.83C754.25,362.3,753.88,362.67,753.42,362.67z"/>
</g>
<g>
	<path class="st6" d="M1133.25,735.71h-4.48c-0.41,0-0.74-0.33-0.74-0.74c0-0.41,0.33-0.74,0.74-0.74h4.45
		c0.41,0,0.75,0.33,0.75,0.74C1133.97,735.38,1133.65,735.71,1133.25,735.71z M1124.31,735.71h-4.45c-0.41,0-0.74-0.33-0.74-0.74
		c0-0.41,0.33-0.74,0.74-0.74h4.45c0.41,0,0.74,0.33,0.74,0.74C1125.05,735.38,1124.72,735.71,1124.31,735.71z M1115.41,735.71
		h-4.45c-0.41,0-0.74-0.33-0.74-0.74c0-0.41,0.33-0.74,0.74-0.74h4.45c0.41,0,0.74,0.33,0.74,0.74
		C1116.15,735.38,1115.82,735.71,1115.41,735.71z M1106.51,735.71h-4.45c-0.41,0-0.74-0.33-0.74-0.74c0-0.41,0.33-0.74,0.74-0.74
		h4.45c0.41,0,0.74,0.33,0.74,0.74C1107.25,735.38,1106.92,735.71,1106.51,735.71z M1097.61,735.71h-4.45
		c-0.41,0-0.74-0.33-0.74-0.74c0-0.41,0.33-0.74,0.74-0.74h4.45c0.41,0,0.74,0.33,0.74,0.74
		C1098.35,735.38,1098.02,735.71,1097.61,735.71z M1088.71,735.71h-4.45c-0.41,0-0.74-0.33-0.74-0.74c0-0.41,0.33-0.74,0.74-0.74
		h4.45c0.41,0,0.74,0.33,0.74,0.74C1089.45,735.38,1089.12,735.71,1088.71,735.71z M1079.81,735.71h-4.45
		c-0.41,0-0.74-0.33-0.74-0.74c0-0.41,0.33-0.74,0.74-0.74h4.45c0.41,0,0.74,0.33,0.74,0.74
		C1080.55,735.38,1080.22,735.71,1079.81,735.71z M1070.91,735.71h-4.45c-0.41,0-0.74-0.33-0.74-0.74c0-0.41,0.33-0.74,0.74-0.74
		h4.45c0.41,0,0.74,0.33,0.74,0.74C1071.65,735.38,1071.32,735.71,1070.91,735.71z M1062.01,735.71h-4.45
		c-0.41,0-0.74-0.33-0.74-0.74c0-0.41,0.33-0.74,0.74-0.74h4.45c0.41,0,0.74,0.33,0.74,0.74
		C1062.74,735.38,1062.42,735.71,1062.01,735.71z M1053.11,735.71h-4.3c-0.06,0-0.13,0-0.19,0c-0.41-0.02-0.72-0.37-0.7-0.77
		c0.02-0.41,0.35-0.72,0.77-0.7c0.04,0,0.08,0,0.12,0h4.3c0.41,0,0.74,0.33,0.74,0.74C1053.84,735.38,1053.51,735.71,1053.11,735.71
		z M1136.12,732.89c-0.01,0-0.02,0-0.02,0c-0.41-0.01-0.73-0.35-0.71-0.76l0-0.07v-4.36c0-0.41,0.33-0.74,0.74-0.74
		c0.41,0,0.74,0.33,0.74,0.74l0,4.47C1136.85,732.58,1136.52,732.89,1136.12,732.89z M1045.9,732.77c-0.41,0-0.74-0.33-0.74-0.74
		v-4.45c0-0.41,0.33-0.74,0.74-0.74c0.41,0,0.74,0.33,0.74,0.74v4.45C1046.63,732.44,1046.3,732.77,1045.9,732.77z M1136.12,723.99
		c-0.41,0-0.74-0.33-0.74-0.74v-4.45c0-0.41,0.33-0.74,0.74-0.74c0.41,0,0.74,0.33,0.74,0.74v4.45
		C1136.86,723.66,1136.53,723.99,1136.12,723.99z M1045.9,723.87c-0.41,0-0.74-0.33-0.74-0.74v-4.45c0-0.41,0.33-0.74,0.74-0.74
		c0.41,0,0.74,0.33,0.74,0.74v4.45C1046.63,723.54,1046.3,723.87,1045.9,723.87z M1136.12,715.09c-0.41,0-0.74-0.33-0.74-0.74v-4.45
		c0-0.41,0.33-0.74,0.74-0.74c0.41,0,0.74,0.33,0.74,0.74v4.45C1136.86,714.76,1136.53,715.09,1136.12,715.09z M1045.9,714.97
		c-0.41,0-0.74-0.33-0.74-0.74v-4.34c0-0.05,0-0.09,0-0.14c0.02-0.41,0.34-0.73,0.77-0.71c0.41,0.02,0.72,0.36,0.71,0.77l0,0.08
		v4.34C1046.63,714.64,1046.3,714.97,1045.9,714.97z M1133.35,707.72c-0.01,0-0.02,0-0.03,0l-0.1,0h-4.31
		c-0.41,0-0.74-0.33-0.74-0.74c0-0.41,0.33-0.74,0.74-0.74h4.31c0.06,0,0.11,0,0.17,0c0.41,0.02,0.72,0.36,0.7,0.77
		C1134.07,707.41,1133.74,707.72,1133.35,707.72z M1124.45,707.72H1120c-0.41,0-0.74-0.33-0.74-0.74c0-0.41,0.33-0.74,0.74-0.74
		h4.45c0.41,0,0.74,0.33,0.74,0.74C1125.18,707.39,1124.85,707.72,1124.45,707.72z M1115.55,707.72h-4.45
		c-0.41,0-0.74-0.33-0.74-0.74c0-0.41,0.33-0.74,0.74-0.74h4.45c0.41,0,0.74,0.33,0.74,0.74
		C1116.28,707.39,1115.95,707.72,1115.55,707.72z M1106.65,707.72h-4.45c-0.41,0-0.74-0.33-0.74-0.74c0-0.41,0.33-0.74,0.74-0.74
		h4.45c0.41,0,0.74,0.33,0.74,0.74C1107.38,707.39,1107.05,707.72,1106.65,707.72z M1097.75,707.72h-4.45
		c-0.41,0-0.74-0.33-0.74-0.74c0-0.41,0.33-0.74,0.74-0.74h4.45c0.41,0,0.74,0.33,0.74,0.74
		C1098.48,707.39,1098.15,707.72,1097.75,707.72z M1088.85,707.72h-4.45c-0.41,0-0.74-0.33-0.74-0.74c0-0.41,0.33-0.74,0.74-0.74
		h4.45c0.41,0,0.74,0.33,0.74,0.74C1089.58,707.39,1089.25,707.72,1088.85,707.72z M1079.95,707.72h-4.45
		c-0.41,0-0.74-0.33-0.74-0.74c0-0.41,0.33-0.74,0.74-0.74h4.45c0.41,0,0.74,0.33,0.74,0.74
		C1080.68,707.39,1080.35,707.72,1079.95,707.72z M1071.04,707.72h-4.45c-0.41,0-0.74-0.33-0.74-0.74c0-0.41,0.33-0.74,0.74-0.74
		h4.45c0.41,0,0.74,0.33,0.74,0.74C1071.78,707.39,1071.45,707.72,1071.04,707.72z M1062.14,707.72h-4.45
		c-0.41,0-0.74-0.33-0.74-0.74c0-0.41,0.33-0.74,0.74-0.74h4.45c0.41,0,0.74,0.33,0.74,0.74
		C1062.88,707.39,1062.55,707.72,1062.14,707.72z M1053.24,707.72h-4.43c-0.41,0-0.74-0.33-0.74-0.74c0-0.41,0.32-0.74,0.73-0.74
		h4.45c0.41,0,0.74,0.33,0.74,0.74C1053.98,707.39,1053.65,707.72,1053.24,707.72z"/>
</g>
<g>
	<path class="st6" d="M782.04,704.77h-4.44c-0.41,0-0.74-0.33-0.74-0.74c0-0.41,0.33-0.74,0.74-0.74h4.41
		c0.41,0,0.75,0.33,0.75,0.74C782.77,704.44,782.45,704.77,782.04,704.77z M773.19,704.77h-4.41c-0.41,0-0.74-0.33-0.74-0.74
		c0-0.41,0.33-0.74,0.74-0.74h4.41c0.41,0,0.74,0.33,0.74,0.74C773.93,704.44,773.6,704.77,773.19,704.77z M764.37,704.77h-4.41
		c-0.41,0-0.74-0.33-0.74-0.74c0-0.41,0.33-0.74,0.74-0.74h4.41c0.41,0,0.74,0.33,0.74,0.74
		C765.1,704.44,764.77,704.77,764.37,704.77z M755.54,704.77h-4.41c-0.41,0-0.74-0.33-0.74-0.74c0-0.41,0.33-0.74,0.74-0.74h4.41
		c0.41,0,0.74,0.33,0.74,0.74C756.28,704.44,755.95,704.77,755.54,704.77z M746.72,704.77h-4.41c-0.41,0-0.74-0.33-0.74-0.74
		c0-0.41,0.33-0.74,0.74-0.74h4.41c0.41,0,0.74,0.33,0.74,0.74C747.46,704.44,747.13,704.77,746.72,704.77z M737.9,704.77h-4.41
		c-0.41,0-0.74-0.33-0.74-0.74c0-0.41,0.33-0.74,0.74-0.74h4.41c0.41,0,0.74,0.33,0.74,0.74
		C738.63,704.44,738.3,704.77,737.9,704.77z M729.07,704.77h-4.41c-0.41,0-0.74-0.33-0.74-0.74c0-0.41,0.33-0.74,0.74-0.74h4.41
		c0.41,0,0.74,0.33,0.74,0.74C729.81,704.44,729.48,704.77,729.07,704.77z M720.25,704.77h-4.41c-0.41,0-0.74-0.33-0.74-0.74
		c0-0.41,0.33-0.74,0.74-0.74h4.41c0.41,0,0.74,0.33,0.74,0.74C720.99,704.44,720.66,704.77,720.25,704.77z M711.43,704.77h-4.41
		c-0.41,0-0.74-0.33-0.74-0.74c0-0.41,0.33-0.74,0.74-0.74h4.41c0.41,0,0.74,0.33,0.74,0.74
		C712.16,704.44,711.83,704.77,711.43,704.77z M702.6,704.77h-4.41c-0.41,0-0.74-0.33-0.74-0.74c0-0.41,0.33-0.74,0.74-0.74h4.41
		c0.41,0,0.74,0.33,0.74,0.74C703.34,704.44,703.01,704.77,702.6,704.77z M693.78,704.77h-4.41c-0.41,0-0.74-0.33-0.74-0.74
		c0-0.41,0.33-0.74,0.74-0.74h4.41c0.41,0,0.74,0.33,0.74,0.74C694.51,704.44,694.18,704.77,693.78,704.77z M684.95,704.77h-4.41
		c-0.41,0-0.74-0.33-0.74-0.74c0-0.41,0.33-0.74,0.74-0.74h4.41c0.41,0,0.74,0.33,0.74,0.74
		C685.69,704.44,685.36,704.77,684.95,704.77z M676.13,704.77h-4.41c-0.41,0-0.74-0.33-0.74-0.74c0-0.41,0.33-0.74,0.74-0.74h4.41
		c0.41,0,0.74,0.33,0.74,0.74C676.87,704.44,676.54,704.77,676.13,704.77z M667.31,704.77h-4.41c-0.41,0-0.74-0.33-0.74-0.74
		c0-0.41,0.33-0.74,0.74-0.74h4.41c0.41,0,0.74,0.33,0.74,0.74C668.04,704.44,667.71,704.77,667.31,704.77z M658.48,704.77h-4.41
		c-0.41,0-0.74-0.33-0.74-0.74c0-0.41,0.33-0.74,0.74-0.74h4.41c0.41,0,0.74,0.33,0.74,0.74
		C659.22,704.44,658.89,704.77,658.48,704.77z M649.66,704.77h-3.52c-0.33,0-0.65-0.02-0.97-0.06c-0.4-0.05-0.69-0.41-0.65-0.82
		c0.05-0.4,0.41-0.69,0.82-0.65c0.26,0.03,0.53,0.05,0.8,0.05h3.52c0.41,0,0.74,0.33,0.74,0.74
		C650.4,704.44,650.07,704.77,649.66,704.77z M786.2,703.5c-0.24,0-0.47-0.11-0.61-0.33c-0.23-0.34-0.14-0.8,0.2-1.02
		c1.11-0.75,1.97-1.8,2.49-3.03c0.16-0.38,0.59-0.55,0.96-0.4c0.38,0.16,0.55,0.59,0.4,0.96c-0.62,1.5-1.67,2.78-3.03,3.69
		C786.49,703.46,786.34,703.5,786.2,703.5z M641.27,702.98c-0.17,0-0.34-0.06-0.48-0.18c-1.24-1.06-2.14-2.45-2.59-4.01
		c-0.11-0.39,0.11-0.8,0.51-0.91c0.39-0.11,0.8,0.11,0.91,0.51c0.37,1.28,1.1,2.42,2.13,3.3c0.31,0.26,0.35,0.73,0.08,1.04
		C641.68,702.89,641.47,702.98,641.27,702.98z M789.53,695.8c-0.41,0-0.74-0.33-0.74-0.74v-4.41c0-0.41,0.33-0.74,0.74-0.74
		c0.41,0,0.74,0.33,0.74,0.74v4.41C790.27,695.47,789.94,695.8,789.53,695.8z M638.62,694.94c-0.41,0-0.74-0.33-0.74-0.74v-4.41
		c0-0.41,0.33-0.74,0.74-0.74c0.41,0,0.74,0.33,0.74,0.74v4.41C639.36,694.61,639.03,694.94,638.62,694.94z M789.53,686.98
		c-0.41,0-0.74-0.33-0.74-0.74v-4.41c0-0.41,0.33-0.74,0.74-0.74c0.41,0,0.74,0.33,0.74,0.74v4.41
		C790.27,686.65,789.94,686.98,789.53,686.98z M638.62,686.12c-0.41,0-0.74-0.33-0.74-0.74v-4.41c0-0.41,0.33-0.74,0.74-0.74
		c0.41,0,0.74,0.33,0.74,0.74v4.41C639.36,685.79,639.03,686.12,638.62,686.12z M789.53,678.15c-0.41,0-0.74-0.33-0.74-0.74V673
		c0-0.41,0.33-0.74,0.74-0.74c0.41,0,0.74,0.33,0.74,0.74v4.41C790.27,677.82,789.94,678.15,789.53,678.15z M638.62,677.29
		c-0.41,0-0.74-0.33-0.74-0.74v-4.41c0-0.41,0.33-0.74,0.74-0.74c0.41,0,0.74,0.33,0.74,0.74v4.41
		C639.36,676.96,639.03,677.29,638.62,677.29z M789.53,669.33c-0.41,0-0.74-0.33-0.74-0.74v-4.41c0-0.41,0.33-0.74,0.74-0.74
		c0.41,0,0.74,0.33,0.74,0.74v4.41C790.27,669,789.94,669.33,789.53,669.33z M638.62,668.47c-0.41,0-0.74-0.33-0.74-0.74v-4.41
		c0-0.41,0.33-0.74,0.74-0.74c0.41,0,0.74,0.33,0.74,0.74v4.41C639.36,668.14,639.03,668.47,638.62,668.47z M789.53,660.5
		c-0.41,0-0.74-0.33-0.74-0.74v-4.41c0-0.41,0.33-0.74,0.74-0.74c0.41,0,0.74,0.33,0.74,0.74v4.41
		C790.27,660.18,789.94,660.5,789.53,660.5z M638.62,659.65c-0.41,0-0.74-0.33-0.74-0.74v-4.41c0-0.41,0.33-0.74,0.74-0.74
		c0.41,0,0.74,0.33,0.74,0.74v4.41C639.36,659.32,639.03,659.65,638.62,659.65z M789.53,651.68c-0.41,0-0.74-0.33-0.74-0.74v-4.41
		c0-0.41,0.33-0.74,0.74-0.74c0.41,0,0.74,0.33,0.74,0.74v4.41C790.27,651.35,789.94,651.68,789.53,651.68z M638.62,650.82
		c-0.41,0-0.74-0.33-0.74-0.74v-4.41c0-0.41,0.33-0.74,0.74-0.74c0.41,0,0.74,0.33,0.74,0.74v4.41
		C639.36,650.49,639.03,650.82,638.62,650.82z M789.53,642.86c-0.41,0-0.74-0.33-0.74-0.74v-4.41c0-0.41,0.33-0.74,0.74-0.74
		c0.41,0,0.74,0.33,0.74,0.74v4.41C790.27,642.53,789.94,642.86,789.53,642.86z M638.62,642c-0.41,0-0.74-0.33-0.74-0.74v-4.41
		c0-0.41,0.33-0.74,0.74-0.74c0.41,0,0.74,0.33,0.74,0.74v4.41C639.36,641.67,639.03,642,638.62,642z M789.53,634.03
		c-0.41,0-0.74-0.33-0.74-0.74v-4.41c0-0.41,0.33-0.74,0.74-0.74c0.41,0,0.74,0.33,0.74,0.74v4.41
		C790.27,633.7,789.94,634.03,789.53,634.03z M638.62,633.17c-0.41,0-0.74-0.33-0.74-0.74v-4.41c0-0.41,0.33-0.74,0.74-0.74
		c0.41,0,0.74,0.33,0.74,0.74v4.41C639.36,632.84,639.03,633.17,638.62,633.17z M789.53,625.21c-0.41,0-0.74-0.33-0.74-0.74v-4.41
		c0-0.41,0.33-0.74,0.74-0.74c0.41,0,0.74,0.33,0.74,0.74v4.41C790.27,624.88,789.94,625.21,789.53,625.21z M638.62,624.35
		c-0.41,0-0.74-0.33-0.74-0.74v-4.41c0-0.41,0.33-0.74,0.74-0.74c0.41,0,0.74,0.33,0.74,0.74v4.41
		C639.36,624.02,639.03,624.35,638.62,624.35z M789.53,616.39c-0.41,0-0.74-0.33-0.74-0.74v-4.41c0-0.41,0.33-0.74,0.74-0.74
		c0.41,0,0.74,0.33,0.74,0.74v4.41C790.27,616.06,789.94,616.39,789.53,616.39z M638.62,615.53c-0.41,0-0.74-0.33-0.74-0.74v-4.41
		c0-0.41,0.33-0.74,0.74-0.74c0.41,0,0.74,0.33,0.74,0.74v4.41C639.36,615.2,639.03,615.53,638.62,615.53z M789.53,607.56
		c-0.41,0-0.74-0.33-0.74-0.74v-4.41c0-0.41,0.33-0.74,0.74-0.74c0.41,0,0.74,0.33,0.74,0.74v4.41
		C790.27,607.23,789.94,607.56,789.53,607.56z M638.62,606.7c-0.41,0-0.74-0.33-0.74-0.74v-4.41c0-0.41,0.33-0.74,0.74-0.74
		c0.41,0,0.74,0.33,0.74,0.74v4.41C639.36,606.37,639.03,606.7,638.62,606.7z M789.24,598.77c-0.32,0-0.61-0.21-0.71-0.53
		c-0.37-1.28-1.11-2.42-2.13-3.29c-0.31-0.26-0.35-0.73-0.09-1.04c0.26-0.31,0.73-0.35,1.04-0.09c1.25,1.06,2.14,2.44,2.6,4.01
		c0.11,0.39-0.11,0.8-0.5,0.91C789.37,598.76,789.31,598.77,789.24,598.77z M639.2,597.96c-0.09,0-0.19-0.02-0.28-0.06
		c-0.38-0.16-0.55-0.59-0.4-0.96c0.63-1.5,1.68-2.78,3.04-3.68c0.34-0.23,0.8-0.14,1.02,0.2c0.23,0.34,0.14,0.8-0.2,1.02
		c-1.12,0.75-1.98,1.79-2.49,3.03C639.76,597.79,639.49,597.96,639.2,597.96z M782.89,593.39c-0.03,0-0.06,0-0.08,0
		c-0.26-0.03-0.53-0.05-0.79-0.05h-3.54c-0.41,0-0.74-0.33-0.74-0.74c0-0.41,0.33-0.74,0.74-0.74h3.54c0.32,0,0.64,0.02,0.96,0.05
		c0.4,0.05,0.69,0.41,0.65,0.82C783.58,593.11,783.26,593.39,782.89,593.39z M774.07,593.34h-4.41c-0.41,0-0.74-0.33-0.74-0.74
		c0-0.41,0.33-0.74,0.74-0.74h4.41c0.41,0,0.74,0.33,0.74,0.74C774.8,593.01,774.47,593.34,774.07,593.34z M765.24,593.34h-4.41
		c-0.41,0-0.74-0.33-0.74-0.74c0-0.41,0.33-0.74,0.74-0.74h4.41c0.41,0,0.74,0.33,0.74,0.74
		C765.98,593.01,765.65,593.34,765.24,593.34z M756.42,593.34h-4.41c-0.41,0-0.74-0.33-0.74-0.74c0-0.41,0.33-0.74,0.74-0.74h4.41
		c0.41,0,0.74,0.33,0.74,0.74C757.16,593.01,756.83,593.34,756.42,593.34z M747.59,593.34h-4.41c-0.41,0-0.74-0.33-0.74-0.74
		c0-0.41,0.33-0.74,0.74-0.74h4.41c0.41,0,0.74,0.33,0.74,0.74C748.33,593.01,748,593.34,747.59,593.34z M738.77,593.34h-4.41
		c-0.41,0-0.74-0.33-0.74-0.74c0-0.41,0.33-0.74,0.74-0.74h4.41c0.41,0,0.74,0.33,0.74,0.74
		C739.51,593.01,739.18,593.34,738.77,593.34z M729.95,593.34h-4.41c-0.41,0-0.74-0.33-0.74-0.74c0-0.41,0.33-0.74,0.74-0.74h4.41
		c0.41,0,0.74,0.33,0.74,0.74C730.68,593.01,730.35,593.34,729.95,593.34z M721.12,593.34h-4.41c-0.41,0-0.74-0.33-0.74-0.74
		c0-0.41,0.33-0.74,0.74-0.74h4.41c0.41,0,0.74,0.33,0.74,0.74C721.86,593.01,721.53,593.34,721.12,593.34z M712.3,593.34h-4.41
		c-0.41,0-0.74-0.33-0.74-0.74c0-0.41,0.33-0.74,0.74-0.74h4.41c0.41,0,0.74,0.33,0.74,0.74
		C713.04,593.01,712.71,593.34,712.3,593.34z M703.48,593.34h-4.41c-0.41,0-0.74-0.33-0.74-0.74c0-0.41,0.33-0.74,0.74-0.74h4.41
		c0.41,0,0.74,0.33,0.74,0.74C704.21,593.01,703.88,593.34,703.48,593.34z M694.65,593.34h-4.41c-0.41,0-0.74-0.33-0.74-0.74
		c0-0.41,0.33-0.74,0.74-0.74h4.41c0.41,0,0.74,0.33,0.74,0.74C695.39,593.01,695.06,593.34,694.65,593.34z M685.83,593.34h-4.41
		c-0.41,0-0.74-0.33-0.74-0.74c0-0.41,0.33-0.74,0.74-0.74h4.41c0.41,0,0.74,0.33,0.74,0.74
		C686.57,593.01,686.24,593.34,685.83,593.34z M677.01,593.34h-4.41c-0.41,0-0.74-0.33-0.74-0.74c0-0.41,0.33-0.74,0.74-0.74h4.41
		c0.41,0,0.74,0.33,0.74,0.74C677.74,593.01,677.41,593.34,677.01,593.34z M668.18,593.34h-4.41c-0.41,0-0.74-0.33-0.74-0.74
		c0-0.41,0.33-0.74,0.74-0.74h4.41c0.41,0,0.74,0.33,0.74,0.74C668.92,593.01,668.59,593.34,668.18,593.34z M659.36,593.34h-4.41
		c-0.41,0-0.74-0.33-0.74-0.74c0-0.41,0.33-0.74,0.74-0.74h4.41c0.41,0,0.74,0.33,0.74,0.74
		C660.1,593.01,659.77,593.34,659.36,593.34z M650.53,593.34h-4.4c-0.41,0-0.74-0.33-0.74-0.74c0-0.41,0.32-0.74,0.73-0.74h4.41
		c0.41,0,0.74,0.33,0.74,0.74C651.27,593.01,650.94,593.34,650.53,593.34z"/>
</g>
<path class="st0" d="M821.04,569.54H650.5c-5.99,0-10.85-4.86-10.85-10.85v-89.73c0-5.99,4.86-10.85,10.85-10.85h170.54
	c5.99,0,10.85,4.86,10.85,10.85v89.72C831.9,564.68,827.04,569.54,821.04,569.54z"/>
<path class="st2" d="M714.08,491.72v44.21c0,2.76,3.07,4.42,5.38,2.9l33.6-22.1c2.09-1.37,2.09-4.43,0-5.8l-33.6-22.1
	C717.15,487.3,714.08,488.96,714.08,491.72z"/>
<g>
	<path class="st6" d="M649.64,559.49c0-1.91,1.54-3.45,3.45-3.45c1.91,0,3.45,1.54,3.45,3.45c0,1.91-1.54,3.45-3.45,3.45
		C651.18,562.94,649.64,561.4,649.64,559.49z"/>
	<path class="st6" d="M810.07,560.42H654.02c-0.51,0-0.93-0.42-0.93-0.93l0,0c0-0.51,0.42-0.93,0.93-0.93h156.06
		c0.51,0,0.93,0.42,0.93,0.93l0,0C811,560,810.59,560.42,810.07,560.42z"/>
</g>
<rect x="819.43" y="592.6" class="st0" width="99.46" height="148.47"/>
<g>
	<path class="st6" d="M878.71,640.3h-1.36v-6.12c0-2.19,1.78-3.98,3.98-3.98h16.83c1.19,0,2.23-0.8,2.53-1.95l2.66-10.12
		c0.21-0.79,0.04-1.62-0.46-2.27c-0.5-0.65-1.26-1.02-2.07-1.02h-21.96v-1.36h21.96c1.24,0,2.39,0.56,3.15,1.55
		c0.76,0.98,1.01,2.24,0.7,3.44l-2.66,10.12c-0.46,1.75-2.04,2.97-3.85,2.97h-16.83c-1.44,0-2.62,1.17-2.62,2.62V640.3z"/>
</g>
<path class="st2" d="M893.21,619.91h-26.27c-3.17,0-5.74-2.57-5.74-5.74v0c0-3.17,2.57-5.74,5.74-5.74h26.27
	c3.17,0,5.74,2.57,5.74,5.74l0,0C898.95,617.34,896.38,619.91,893.21,619.91z"/>
<path class="st6" d="M878.03,665.7L878.03,665.7c-2.07,0-3.74-1.67-3.74-3.74v-22.68c0-2.07,1.68-3.74,3.74-3.74l0,0
	c2.07,0,3.74,1.68,3.74,3.74v22.68C881.77,664.02,880.1,665.7,878.03,665.7z"/>
<g>
	<path class="st5" d="M1021.21,714.87c0,0,2.57,7.93,2.35,9.74c-0.22,1.81-1.84,8.01-2.99,9.59c-1.15,1.59-1.72-6.46-2.64-7.67
		c-0.91-1.21-0.19,3.03-0.83,3.42c-0.64,0.39-1.99-3.12-2.56-4.36c-0.58-1.24,1.41-5.81,1.42-8.99
		C1015.96,713.43,1021.21,714.87,1021.21,714.87z"/>
	<path class="st7" d="M960.67,651.89c-0.71-9.09,9.16-15.32,16.96-10.6c0.16,0.1,0.32,0.2,0.48,0.3
		c11.67,7.51,36.86,42.57,38.59,46.09c1.73,3.51,6.85,31.45,6.85,31.45s-6.32,2.31-9.28-0.09c0,0-10.25-26.5-11.77-27.82
		c-1.52-1.32-41.01-23.49-41.35-31.8C961.06,657.23,960.89,654.59,960.67,651.89z"/>
</g>
<g>
	<path class="st6" d="M1031.16,857.11c0,0,4.71,4.29,3.79,7.35c-0.92,3.05-5.17,5.09-5.74,8.82c-0.57,3.73-2.87,5.76-4.94,5.76
		c-2.07,0-9.85,0-9.85,0s-1.52-2.62,2.15-3.42c3.67-0.79,5.06-5.17,4.83-9.24c-0.23-4.07,0.34-9.49,0.34-9.49l7.81-1.81
		L1031.16,857.11z"/>
	<path class="st6" d="M973.42,868.22c0,0,0.85,9.78-1.22,10.79l-26.44-0.05c0,0,0-3.05,4.25-3.73c4.25-0.68,11.71-3.17,12.97-8.7
		C964.23,860.98,973.42,868.22,973.42,868.22z"/>
	<path class="st2" d="M951.09,730.14c0,0,1.39,17.13,3.03,37.73c2.23,27.98,4.91,62.35,5.17,68.86c0.46,11.31,2.3,29.39,2.3,29.39
		s4.36,4.3,13.09,2.49c0,0,7.78-25.82,10-53.13c0.03-0.45,0.07-0.9,0.1-1.35c2.07-27.81,5.28-86.36,5.28-86.36L951.09,730.14z"/>
	<path class="st8" d="M951.09,730.14c0,0,1.39,17.13,3.03,37.73l30.55,47.6c0.03-0.45,0.07-0.9,0.1-1.35
		c2.07-27.81,5.28-86.36,5.28-86.36L951.09,730.14z"/>
	<path class="st2" d="M957.46,732.17c0,0,25.14,62.05,41.67,91.22c16.53,29.16,21.7,37.3,21.7,37.3s9.47-3.73,10.33-6.27
		c0,0-6.32-56.3-17.39-70.02c-6.25-7.75-13.6-31.03-13.95-39.17c-0.34-8.14-2.24-24.25-2.24-24.25L957.46,732.17z"/>
</g>
<path class="st5" d="M979.14,639.08c0,0-16.84,8.54-26.71,5.69c0,0,2.35-3.09,6.53-5.44c-0.38-1.96-0.68-3.66-0.86-5.11
	c-0.48-3.33-0.52-5.23-0.52-5.23l6.46-5.29l6.12-5.06C969.96,632.54,979.14,639.08,979.14,639.08z"/>
<path class="st6" d="M995.87,725.89c-6.8,4.12-13.24,7.21-20.77,8.95c-8.89,2.11-19.81,1.49-23.46,2.04
	c-0.38,0.05-0.73-0.05-1.07-0.27c-0.29-0.15-1.9-10.99-3.51-24.67c-0.07-0.55-0.15-1.11-0.18-1.66l-0.02-0.18
	c-0.63-5.35-1.18-10.97-1.66-16.6c-0.39-4.38-0.71-8.72-0.93-12.79c-0.28-5.09-0.4-9.77-0.28-13.62c0.05-1.76,0.15-3.34,0.31-4.71
	c0.96-7.99,4.77-13.7,8.36-17.96l2.98-3.39c3.45,0.22,6.98-0.43,10.3-2.63c3.64-2.39,7.56-4.97,8.3-4.54
	c5.57,3.05,10.11,10.95,13.35,21.39c1.86,6.01,3.29,12.83,4.2,20.05c0.29,2.24,0.54,4.54,0.73,6.83c0.04,0.42,0.07,0.85,0.1,1.26
	c0.44,6.26,1.15,12.12,1.94,17.36c1.07,7.06,2.28,12.98,3.14,17.15c0.43,2.12,0.76,3.76,0.95,4.94
	C998.84,723.85,996.78,725.32,995.87,725.89z"/>
<path class="st9" d="M970.39,623.95c0,0-4.14,7.92-12.28,10.27c-0.48-3.33-0.52-5.23-0.52-5.23l6.46-5.29L970.39,623.95z"/>
<path class="st5" d="M954.59,628.83c0,0,16.28,2.33,17.6-7.67c1.33-10,4.32-16.44-6.02-18.35c-10.34-1.91-12.86,1.65-14.13,4.88
	C950.78,610.92,950.39,627.97,954.59,628.83z"/>
<path class="st4" d="M977.7,601.39c0.14-0.17,0.48-0.31,1.24-0.37c0,0-0.61-0.37-1.42-0.37c-0.18-1.05-0.78-2.9-2.59-3.31
	c0,0,0.98,0.5,1.13,1.61c-2.14-2.11-6.66-3.59-19.07-2.36c-16.36,1.62-10.75,12-8.61,13.21c2.15,1.21,7.42-2.33,11.38-2.09
	c3.96,0.24,4.82,5.93,6.18,6.69c1.36,0.76,0.8-0.62,2.6-1.47c1.8-0.86,2.03,2.15,1.54,4.11c-0.49,1.97,2.06,4.49,2.06,4.49
	s0,0,2.47-2.76c2.47-2.76,4.61-14.3,3.42-16.73C977.91,601.82,977.81,601.6,977.7,601.39z"/>
<path class="st7" d="M972.53,667.98c0,0-13.72,10.44-28.27,12.73c-0.28-5.09-0.4-9.77-0.28-13.62L972.53,667.98z"/>
<g>
	<path class="st5" d="M888.25,654.5c-0.22-0.23-3.01-9.59-7.85-8.9c-3.16,0.45-8.32,2.27-6.95,6.43c0.54,1.64,10.16,7.27,10.16,7.27
		L888.25,654.5z"/>
	<path class="st6" d="M974.23,647.8c7.83,4.68,7.19,16.34-1.18,19.96c-0.17,0.07-0.34,0.15-0.52,0.22
		c-12.88,5.17-56.05,5.41-59.92,4.79c-3.87-0.62-29.61-12.62-29.61-12.62s1.77-6.49,5.44-7.52c0,0,27.54,6.98,29.5,6.51
		c1.96-0.47,42.9-19.84,49.87-15.31C969.65,645.03,971.91,646.41,974.23,647.8z"/>
</g>
<g>
	<path class="st3" d="M1264.64,340.68h-34.36c-1.44,0-2.63-1.18-2.63-2.63l0,0c0-1.44,1.18-2.63,2.63-2.63h34.36
		c1.44,0,2.63,1.18,2.63,2.63l0,0C1267.26,339.49,1266.08,340.68,1264.64,340.68z"/>
	<path class="st3" d="M1264.64,350.94h-34.36c-1.44,0-2.63-1.18-2.63-2.63l0,0c0-1.44,1.18-2.63,2.63-2.63h34.36
		c1.44,0,2.63,1.18,2.63,2.63l0,0C1267.26,349.75,1266.08,350.94,1264.64,350.94z"/>
	<path class="st3" d="M1264.64,361.46h-34.36c-1.44,0-2.63-1.18-2.63-2.63l0,0c0-1.44,1.18-2.63,2.63-2.63h34.36
		c1.44,0,2.63,1.18,2.63,2.63l0,0C1267.26,360.28,1266.08,361.46,1264.64,361.46z"/>
</g>
<path class="st3" d="M1130.07,609.24h-81.81c-1.92,0-3.48-1.57-3.48-3.48l0,0c0-1.92,1.57-3.48,3.48-3.48h81.81
	c1.92,0,3.48,1.57,3.48,3.48l0,0C1133.55,607.67,1131.98,609.24,1130.07,609.24z"/>
<path class="st3" d="M730.17,370.22h-81.81c-1.92,0-3.48-1.57-3.48-3.48l0,0c0-1.92,1.57-3.48,3.48-3.48h81.81
	c1.92,0,3.48,1.57,3.48,3.48l0,0C733.65,368.65,732.08,370.22,730.17,370.22z"/>
<path class="st3" d="M1130.07,643.78h-81.81c-1.92,0-3.48-1.57-3.48-3.48l0,0c0-1.92,1.57-3.48,3.48-3.48h81.81
	c1.92,0,3.48,1.57,3.48,3.48l0,0C1133.55,642.22,1131.98,643.78,1130.07,643.78z"/>
<path class="st3" d="M1130.07,626.51h-97.84c-1.92,0-3.48-1.57-3.48-3.48l0,0c0-1.92,1.57-3.48,3.48-3.48h97.84
	c1.92,0,3.48,1.57,3.48,3.48l0,0C1133.55,624.94,1131.98,626.51,1130.07,626.51z"/>
<g>
	<path class="st3" d="M705.05,392.11h-44.5c-1.92,0-3.48-1.57-3.48-3.48l0,0c0-1.92,1.57-3.48,3.48-3.48h44.5
		c1.92,0,3.48,1.57,3.48,3.48l0,0C708.54,390.55,706.97,392.11,705.05,392.11z"/>
	<path class="st3" d="M641.79,388.63c0-1.92,1.56-3.48,3.48-3.48c1.92,0,3.48,1.56,3.48,3.48c0,1.92-1.56,3.48-3.48,3.48
		C643.34,392.11,641.79,390.55,641.79,388.63z"/>
</g>
<g>
	<path class="st3" d="M714.04,405.97h-53.48c-1.92,0-3.48-1.57-3.48-3.48v0c0-1.92,1.57-3.48,3.48-3.48h53.48
		c1.92,0,3.48,1.57,3.48,3.48l0,0C717.52,404.41,715.95,405.97,714.04,405.97z"/>
	<path class="st3" d="M641.79,402.49c0-1.92,1.56-3.48,3.48-3.48c1.92,0,3.48,1.56,3.48,3.48s-1.56,3.48-3.48,3.48
		C643.34,405.97,641.79,404.41,641.79,402.49z"/>
</g>
<g>
	<path class="st3" d="M705.05,421.02h-44.5c-1.92,0-3.48-1.57-3.48-3.48l0,0c0-1.92,1.57-3.48,3.48-3.48h44.5
		c1.92,0,3.48,1.57,3.48,3.48v0C708.54,419.45,706.97,421.02,705.05,421.02z"/>
	<path class="st3" d="M641.79,417.53c0-1.92,1.56-3.48,3.48-3.48c1.92,0,3.48,1.56,3.48,3.48c0,1.92-1.56,3.48-3.48,3.48
		C643.34,421.02,641.79,419.46,641.79,417.53z"/>
</g>
<g>
	<g>
		<path class="st6" d="M789.85,399.91c-0.6,0.08-1.22,0.12-1.84,0.11c-3.28-0.04-6.35-1.35-8.65-3.7
			c-4.73-4.85-4.64-12.64,0.2-17.37v0c4.85-4.73,12.64-4.64,17.37,0.2c4.73,4.85,4.64,12.64-0.2,17.37
			C794.84,398.39,792.44,399.56,789.85,399.91z M780.98,380.4c-4.05,3.95-4.12,10.46-0.17,14.51c1.92,1.96,4.48,3.06,7.22,3.09
			c2.74,0.03,5.33-1.01,7.29-2.92c4.05-3.95,4.12-10.46,0.17-14.51C791.54,376.52,785.03,376.45,780.98,380.4L780.98,380.4z"/>
	</g>
	
		<rect x="773.08" y="393.1" transform="matrix(0.6989 0.7153 -0.7153 0.6989 520.274 -432.7765)" class="st6" width="2.02" height="16.77"/>
	<path class="st6" d="M763.93,411.41L763.93,411.41c-0.7-0.71-0.68-1.86,0.03-2.55l7.06-6.9c0.71-0.7,1.86-0.68,2.55,0.03l0,0
		c0.7,0.71,0.68,1.86-0.03,2.55l-7.06,6.9C765.77,412.14,764.63,412.13,763.93,411.41z"/>
</g>
<g>
	<path class="st6" d="M1237.07,879.27L1237.07,879.27c-1.57,0.01-3.21-1.12-3.67-2.53L1139,589.32c-0.46-1.41,0.43-2.55,2-2.56l0,0
		c1.57-0.01,3.21,1.12,3.67,2.53l94.4,287.41C1239.53,878.11,1238.63,879.26,1237.07,879.27z"/>
	<path class="st6" d="M1313.14,878.83L1313.14,878.83c-1.57,0.01-3.21-1.12-3.67-2.53l-94.4-287.41c-0.46-1.41,0.43-2.55,2-2.56l0,0
		c1.57-0.01,3.21,1.12,3.67,2.53l94.4,287.41C1315.61,877.67,1314.71,878.82,1313.14,878.83z"/>
	<path class="st6" d="M1231.23,628.93l-76.4,0.44c-1.47,0.01-3.03-1.07-3.47-2.39l0,0c-0.43-1.32,0.42-2.41,1.89-2.42l76.4-0.44
		c1.47-0.01,3.03,1.07,3.47,2.39l0,0C1233.55,627.83,1232.7,628.92,1231.23,628.93z"/>
	<path class="st6" d="M1247.71,679.11l-76.4,0.44c-1.47,0.01-3.03-1.07-3.47-2.39l0,0c-0.43-1.32,0.42-2.41,1.89-2.42l76.4-0.44
		c1.47-0.01,3.03,1.07,3.47,2.39l0,0C1250.03,678.01,1249.18,679.1,1247.71,679.11z"/>
	<path class="st6" d="M1263.58,727.44l-76.4,0.44c-1.47,0.01-3.03-1.07-3.47-2.39l0,0c-0.43-1.32,0.42-2.41,1.89-2.42l76.4-0.44
		c1.47-0.01,3.03,1.07,3.47,2.39l0,0C1265.91,726.35,1265.06,727.43,1263.58,727.44z"/>
	<path class="st6" d="M1281.45,781.85l-76.39,0.44c-1.47,0.01-3.03-1.07-3.47-2.39l0,0c-0.43-1.32,0.42-2.41,1.89-2.42l76.39-0.44
		c1.47-0.01,3.03,1.07,3.47,2.39l0,0C1283.78,780.76,1282.93,781.84,1281.45,781.85z"/>
	<path class="st6" d="M1300.16,838.8l-76.4,0.44c-1.47,0.01-3.03-1.07-3.47-2.39l0,0c-0.43-1.32,0.42-2.41,1.89-2.42l76.4-0.44
		c1.47-0.01,3.03,1.07,3.47,2.39l0,0C1302.48,837.7,1301.63,838.79,1300.16,838.8z"/>
</g>
<path class="st6" d="M1135.7,457.68L1135.7,457.68c-0.6,0.12-1.18-0.28-1.3-0.88l-1.22-6.32c-0.12-0.6,0.28-1.18,0.88-1.3l0,0
	c0.6-0.12,1.18,0.28,1.3,0.88l1.22,6.32C1136.69,456.98,1136.3,457.57,1135.7,457.68z"/>
<rect x="1132.5" y="438.46" transform="matrix(0.9818 -0.19 0.19 0.9818 -63.5589 223.3483)" class="st6" width="0.76" height="9.3"/>
<path class="st5" d="M1132.37,387.09c0,0-0.72-6.29-2.25-8.69c-1.52-2.4-7.28-3.95-7.65-3.59c-1.13,1.09,3.33,4.95,3.51,6.38
	c0.17,1.42-2.26,0.44-1.09,3.21c0.99,2.34,4.25,5.38,4.25,5.38L1132.37,387.09z"/>
<path class="st8" d="M1129.6,386.39c2.1-1.65,2.55-1.62,2.55-1.62s19.43,16.83,21.32,18.33c1.89,1.5,31.07,9.96,31.07,9.96
	l4.64,23.72c0,0-39.48-19.07-44.2-22.96c-7.8-6.43-17.63-24.43-17.63-24.43S1127.95,387.69,1129.6,386.39z"/>
<path class="st3" d="M1185.15,614.33c0,0-0.33,8.11-1.89,10.08l-21.65,0.12c0.15-0.84,0.24-2.77,3.24-3.29
	c3.78-0.66,8.23-3.3,10.52-8.3C1177.77,607.68,1185.15,614.33,1185.15,614.33z"/>
<path class="st3" d="M1227.65,613.16c0,0,1.51,10.77-0.54,10.96c-0.27,0.02-8.73,0.16-12.39,0.22c-4.31,0.07-11.38-0.08-11.38-0.08
	c-0.89,0.04-1.47-0.93-1.02-1.69c0.5-0.84,1.45-1.74,3.25-2.09c3.77-0.73,10.06-3.5,12.26-8.54
	C1220.15,606.65,1227.65,613.16,1227.65,613.16z"/>
<path class="st7" d="M1173.89,502.81c0,0,6.02,21.07,23.28,57.65c17.26,36.59,18,54.22,18,54.22s2.61,0.92,6.08,0.55
	c3.75-0.4,6.4-2.07,6.4-2.07s-1.12-43.55-9.27-62.01c-8.15-18.46-9.81-68.99-9.81-68.99L1173.89,502.81z"/>
<path class="st6" d="M1164.23,484.68c0,0-0.48,32.62,5.16,72.68c5.64,40.06,3.01,58.68,3.01,58.68s1.5,1.09,6.1,1.07
	c5.39-0.02,8.15-2.25,8.15-2.25s8.08-40.07,5.76-60.12c-2.32-20.05,11.06-68.8,11.06-68.8L1164.23,484.68z"/>
<path class="st5" d="M1190.9,408.34l-6.38,4.72l-9.22-1.94c0.13-0.84,0.74-4.32,1.29-7.48c0.03-0.19,0.07-0.37,0.1-0.55
	c0.47-2.68,0.88-4.99,0.88-4.99l8.61-4.29l3.21-1.6c-0.01,0.06-0.25,2.98-0.28,3.41C1188.51,403.19,1190.9,408.34,1190.9,408.34z"/>
<path class="st2" d="M1209.16,488.71c-2.08,9.54-46.7,5.35-46.12-0.47c0.02-0.19,0.14-2.89,0.3-6.52
	c0.34-7.86,0.85-20.13,0.92-21.09c0-0.02,0.01-0.03,0.01-0.05c0.8-8.1,1.57-16.03,1.62-21.21c0.04-4.49,0.67-9.08,1.49-13.25
	c0.76-3.85,1.69-7.34,2.5-10.06c0.57-1.92,1.64-3.6,3.04-4.93c1-0.94,2.18-1.7,3.48-2.22c0.35-0.15,0.72-0.27,1.08-0.38
	c5.25-1.52,12.52-3.41,14.49-2.83c5.33,1.57,9.3,10.96,12.1,22.93C1209.31,451.04,1210.53,482.5,1209.16,488.71z"/>
<path class="st9" d="M1188.47,395.75c-1.89,3.62-8.93,6.74-11.87,7.89c0.03-0.19,0.07-0.37,0.1-0.55c0.47-2.68,0.88-4.99,0.88-4.99
	l8.61-4.29C1188.09,393.78,1189.25,394.26,1188.47,395.75z"/>
<path class="st5" d="M1173.4,397.6c0,0,15.53,4.84,18.4-4.87c2.87-9.72,6.8-15.63-2.99-19.14c-9.79-3.5-12.82-0.37-14.57,2.64
	C1172.49,379.24,1169.44,396.09,1173.4,397.6z"/>
<path class="st4" d="M1174.85,375.29c0,0,0.99,11.31,3.33,10.82c2.34-0.49,4.46-0.85,4.12,2.55c-0.34,3.41-3.58,7.34,3.62,7.95
	c7.21,0.6,17.57-17.98,15.59-21.5C1195.79,364.96,1166.59,362.91,1174.85,375.29z"/>
<path class="st8" d="M1163.34,481.72c0.34-7.86,0.85-20.13,0.92-21.09c0-0.02,0.01-0.03,0.01-0.05l26.36-15.76
	C1190.63,444.82,1191.65,481.62,1163.34,481.72z"/>
<path class="st5" d="M1142.39,448.74c0,0-5.36-3.62-6.37-3.94c-1.02-0.32-4.35-0.66-4.5-0.4c-0.15,0.26-0.61,1.07-0.03,1.34
	c0.58,0.27,1.31,0.18,1.09,0.37c-0.22,0.19-2.41-0.85-2.91,0.26c-0.51,1.12-0.95,4.94,1.62,6.1c2.57,1.16,8.91,0.11,9.37,0.24
	C1144.53,453.85,1142.39,448.74,1142.39,448.74z"/>
<path class="st2" d="M1142.34,447.76c0,0,26.15,4.44,28.46,3.32c3.7-1.8-1.44-28.33-1.44-28.33s-0.22-6.01,6.8-7.43
	c6.1-1.23,11.99,3.34,11.99,3.34s5.35,4.79,4.67,10.11c-1.52,11.78-3.88,35.74-11.76,39.41c-10.16,4.74-39.57-13.14-39.57-13.14
	s-0.98-1.2-0.84-3.43C1140.79,449.65,1142.34,447.76,1142.34,447.76z"/>
<path class="st5" d="M1124.77,384.08c0,0-1.67-3.33-1.94-3.95c-0.27-0.62,0.38-0.49,1.03-0.14c0.64,0.35,1.52,2.28,2.52,2.05
	C1127.16,381.85,1124.77,384.08,1124.77,384.08z"/>
</svg>
